<svg id="Layer_1" xmlns="http://www.w3.org/2000/svg" viewBox="0 0 300 256.5"><style>.st0{fill:#fff}</style><path class="st0" d="M185.7 42.8c-9.1 0-16.5 7.4-16.5 16.5s7.4 16.5 16.5 16.5 16.5-7.4 16.5-16.5c0-9-7.4-16.5-16.5-16.5zm-35.1 105.8c-29.7 0-53.7 24.2-53.7 54s24.1 54 53.7 54c29.7 0 53.7-24.2 53.7-54 0-29.9-24-54-53.7-54zm30.3 60.3h-23.4V233c0 3.9-3.2 7-7 7s-7-3.1-7-7v-24.1h-23.3c-3.8 0-7-3.2-7-7s3.1-7 7-7h23.3v-22.8c0-3.9 3.2-7 7-7s7 3.1 7 7v22.8h23.4c3.8 0 7 3.2 7 7s-3.2 7-7 7z"/><path class="st0" d="M288.5 0H12.7C6.3 0 .9 5.8.9 12.2v178.6c0 6.5 5.4 11.1 11.9 11.1h70.1c0-37.6 30.4-68 67.8-68s67.8 30.5 67.8 68h70.1c6.4 0 11.7-4.6 11.7-11.1V12.2C300.1 5.8 294.9 0 288.5 0zm-55.2 80.9l-44.2 44.4-67.3-67.6c-.9-.9-2.4-.9-3.3 0l-42.7 42.9L56.4 81c-.9-.9-2.5-.9-3.4 0l-31.1 31.1v-91h257.2v102.4l-42.5-42.6c-.9-.9-2.4-.9-3.3 0z"/></svg>