<svg xmlns="http://www.w3.org/2000/svg" viewBox="0 0 300 210.8"><path d="M0 111.2h16.8c2.3-6.7 1.5-9.2-3.9-12.9-17-11.6-17.1-25.5-.1-37.1C26.2 52 41.6 47.4 57.3 43.7c3.7-.9 5-2.2 4.9-6-.3-8-.1-16-.1-24 0-5.4.8-5.8 5.5-3.4 1.1.6 2.5.6 3.8.6 7.6.1 15.1 0 23.9 0-1.7 1.3-2.4 2.1-3.3 2.6-6.6 4.1-13 8.3-19.8 12-3.7 2-5.4 4.5-4.8 8.7.3 2.1 0 4.3 0 6.2 22-2.4 43.5-4.8 65.5-7.2v-6.8c-1.9-.2-3.6-.3-5.7-.5V0h46.7v25.8c-1.9.2-3.6.4-5.7.6v7.2c17.2 1.6 34.4 3.3 52.2 5V24.3c0-4.2-.1-8.5.1-12.7.1-3.2 1.9-3.9 4.6-2.3 1.4.8 3.1 1.4 4.7 1.4 7.5.1 15 .1 22.5.1.1.4.2.7.3 1.1-3.7 2.3-7.5 4.7-11.2 7-4.5 2.7-9 5.4-13.5 8.2-4.6 2.9-1.7 7.5-2 11.2-.1.8 2.8 2.3 4.5 2.6 15.2 3.2 30.3 6.7 44.2 13.7 6.4 3.2 12.8 7.2 18.1 12 8.5 7.6 8.3 17 .6 25.4-2 2.1-4.1 4.4-6.6 5.6-5.9 2.8-6.1 7.3-4.9 13.2h18.1c-2 4.1-3 7.5-5.1 10-2.9 3.4-6.4 6.5-10.1 8.9-3.4 2.2-3.9 4.6-2.9 8.4H300c-2.3 4.3-3.6 8-5.9 10.8-2.4 3-5.6 5.7-8.9 7.6-3.9 2.3-4.7 5.1-3.3 9.5h17.6c-1.5 3.5-1.9 6.8-3.8 8.7-4.6 4.6-9.4 9.3-14.9 12.5-14.5 8.6-30.6 13.1-47 16-16.5 2.9-33.2 4.7-49.9 6.9-2 .3-4 0-6.4 0v-14.9c8.2-.7 16.3-1.5 24.4-2.2 5.9-.5 5.9-.6 5.9-6.5V180c-10.3.9-20.1 1.8-30.5 2.7v-15.5c7-.6 14.4-1.2 21.8-2 11.2-1.2 8.4.1 8.7-9.8 0-.7-.2-1.4-.4-2.5-8.9.7-17.5 1.4-26.2 2.2-6 .6-11.2.6-16.8-3.4-9-6.5-24-4.9-33 1.8-1.7 1.2-4.2 2.1-6.3 2-9-.5-18-1.4-27.1-2.1-2-.2-4-.3-6.5-.5v11.6c10 .9 20.1 1.9 30.3 2.8v15.4c-10.3-.9-20.1-1.8-30.6-2.7 0 3.6-.4 6.9.2 10.1.2 1.1 2.5 2.5 4 2.7 7.4.9 14.8 1.6 22.2 2 3.2.2 4.4 1.2 4.2 4.4-.3 3.6-.1 7.2-.1 11.6-8.1-.7-15.6-1.2-23.1-2-25.2-2.9-50.1-7-73.3-17.7-7.2-3.3-13.7-8.3-19.9-13.2-4.3-3.4-5.1-6.9-4.9-11.5H17c1.2-4.3.6-6.8-3.1-9.5-4.7-3.5-8.5-8.2-12.4-12.6-1.1-1.2-1.1-3.5-1.7-5.8h17.1c1.4-4 .3-6.1-2.8-8.7-4.7-3.7-8.7-8.4-12.7-12.9-.8-1.3-.8-3.4-1.4-5.7zm69.4-60.9c-14.9 3.2-29.2 6.5-41.9 14.4-1.8 1.2-3.6 2.6-5 4.2-4.8 5.1-5 10.7.1 15.4 3.8 3.4 8.3 6.7 13.1 8.5 9.9 3.7 20.1 7.2 30.4 9.1 16 3 32.2 5.2 48.4 6.6 14.6 1.3 29.4 1.5 44.1 1.2 16.1-.4 32.3-1.3 48.3-3.2 13.1-1.5 26.1-4.4 38.9-7.4 10.4-2.4 20.5-5.9 28.9-12.9 7.4-6.2 7.5-13.1-.2-19-12.7-9.9-28-13-43.7-16.5-1.8 6.7-3.5 13-5.2 19.5 12.9 3.9 25.6 7.3 36.3 15.4-5.5 4.9-8.3 5.1-13.5 1.4-7.3-5.1-15.6-7.6-24.7-9.8-1.6 6-3.1 11.6-4.7 17.4 4.1.8 7.5 1.5 10.9 2.2-53 11.3-106 11.3-159 1.3 0-.4 0-.8-.1-1.2 3.3-.7 6.6-1.4 10.3-2.2-1.6-6-3.2-11.7-4.8-17.9-10.2 2.7-19.9 5.1-27.9 11.8-.9.8-2.4 1.7-3.2 1.5-2.8-.9-5.5-2.3-8.9-3.9 11.8-9 25-12.4 38.2-16.3-1.7-6.8-3.3-13-5.1-19.6zm22.1 86.9c39 4.6 77.4 4.7 116 0v-15.1c-38.9 4.5-77.3 4.6-116-.1v15.2zm62.8-76c.4.3.5.4.7.5 20.3 2.1 40.5 4.2 60.8 6.2.8.1 2.2-.5 2.4-1 1.7-5.8 3.2-11.6 4.9-17.8-23.2-3.9-45.8-5.6-68.7-5.7-.1 6.2-.1 11.9-.1 17.8zm-8.4-18c-23 .2-45.5 1.7-68.6 5.6 1.6 6.1 3.1 11.9 4.9 17.5.2.7 2.4 1.2 3.6 1.1 19-1.8 38-3.7 56.9-5.5 1.1-.1 2.2-.3 3.2-.5V43.2zm0 26.3c-20.7.4-40.9 1.5-61.5 5.6 1.5 5.8 2.8 11.3 4.5 16.7.2.7 2.3 1.4 3.4 1.3 10.6-.8 21.2-1.8 31.8-2.6 7.2-.5 14.5-.8 21.8-1.3V69.5zm8.3 20.3c5.2 0 10-.3 14.8.1 12.8.9 25.5 2 38.3 2.9 1.4.1 3.9-.6 4.2-1.5 1.7-5.2 3-10.5 4.5-16.1-20.8-4.1-41.1-5.4-61.7-5.7-.1 6.9-.1 13.1-.1 20.3zm-84.1 29.3c-12.1-3.2-23.6-6.3-35.6-9.5 0 4-.1 7.8.1 11.5.1 1 1 2.5 2 2.9 10.6 4.7 21.8 7.6 33.6 9.7-.1-5.2-.1-10-.1-14.6zm158.8 15.7c11.8-3.8 22.8-7.2 33.8-10.9.8-.3 1.7-1.7 1.7-2.6.2-3.9.1-7.8.1-11.7-11.5 3-22.6 5.8-33.6 8.8-.8.2-1.9 1.5-1.9 2.4-.2 4.2-.1 8.3-.1 14zM70.3 189.2c0-4.1.1-7.4-.1-10.7-.1-.8-1.1-2.1-2-2.3-11.1-2.9-22.2-5.6-33.8-8.5 0 1.9.2 3.9 0 5.9-.5 3.8 1.1 5.9 4.7 6.9 5.7 1.6 11.3 3.8 17 5.4 4.5 1.3 9.1 2.1 14.2 3.3zm194.2-21.5c-11.6 2.9-22.7 5.6-33.8 8.6-.8.2-1.9 1.5-1.9 2.3-.2 3.3-.1 6.6-.1 10.5 12.2-2.4 23.5-5.3 34.3-10.1.7-.3 1.4-1.6 1.4-2.4.3-3 .1-6 .1-8.9zm-230-27.2c0 2.3-.2 4.8.1 7.2.1 1.2.8 3 1.8 3.5 10.7 4.8 21.9 7.7 34 9.9 0-3.5.1-6.5-.1-9.5-.1-.9-1-2.2-1.8-2.4-11.2-3.1-22.3-5.8-34-8.7zm230.1 0c-11.6 2.9-22.7 5.6-33.8 8.5-.8.2-1.8 1.2-1.9 1.9-.2 3.2-.1 6.5-.1 11.1 11.7-3.7 22.4-7 33-10.5 1.2-.4 2.4-2.3 2.7-3.7.4-2.5.1-5 .1-7.3zM163.1 33.7c.8-7.4.8-7.4-6.1-7.4h-13.5c-6.7 0-7.1.5-5.3 7.4h24.9zm-2-17.4c2.4-1.3 6-2.4 6-3.3-.2-3.7-3.6-2.4-5.8-2.3-2.3.1-5.8-1.6-6.2 2.3 0 .9 3.6 2.1 6 3.3zm-23.8.2c2.4-1.4 5.9-2.6 5.9-3.6-.2-3.7-3.7-2.3-5.8-2.2-2.1.1-4.2 1.3-6.3 2 1.8 1.2 3.8 2.3 6.2 3.8z" fill="#fff"/></svg>