<svg xmlns="http://www.w3.org/2000/svg" viewBox="0 0 300 300"><path d="M222.5 232.5l1.1-2c4.5-8.1 12.7-22.9 19.6-43.2-22-7.9-36.8-1.6-37-1.4-3.4 1.4-79.4 33.2-98.9 38.1-23.8 8.5-63.5 10.4-79.4 10.9 23.3 33.7 60 57.3 102.3 63.1h.1c6.5-.6 56.5-7.5 92.2-65.5zm-19.2-53.3c.7-.2 17.3-7.6 42.1 1.3 3.3-11 6-23.3 7.5-36.9-22.3-7-56.3-15.4-67.9-17.6-14.6-5.7-81-11-105.3-11.7-30.6-.6-46.7 3.9-52 5.4C18 121.6 6 132.6 2.6 135.9c-.5 4.9-.8 9.8-.8 14.7 0 28.3 7.9 54.7 21.6 77.1 10.4-.1 56.4-1.5 82-10.6 19-4.9 97.1-37.6 97.9-37.9zM177.8 58.9c13 10.5 42.1 33.9 74.2 33.5-3.9-22.9-15.2-58.5-47.8-80.7-16.7-6.5-34.8-10.1-53.8-10.1s-37.1 3.6-53.9 10.2c15.7 3.7 44.4 14.3 77.5 44.2 1 .7 2.3 1.7 3.8 2.9zm-98 48c21.4.7 91.5 5.8 107.2 12.2 10.7 2 43.7 9.9 66.6 17.1.6-7 .8-14.2.6-21.7 0-1.9-.1-7.1-1-14.5-.6.1-1.2.1-1.8.1-34.2 0-64.5-24.3-78.2-35.4-1.4-1.1-2.8-2.1-3.8-3.1-43.1-39.1-78.7-43.9-84.8-44.4C42.9 37.8 12.3 77.4 4 124.7c5.9-4.9 14.3-10.7 21.9-12.2 5.4-1.5 22.2-6.1 53.9-5.6zm169.7 84.4c-6.9 20.1-15 34.7-19.5 42.8l-1.2 2.1c-23.8 38.5-53 55.6-73.5 63.1 46.7-1.4 88.1-24.6 114.4-59.7-1.6-28.5-12.5-41.4-20.2-48.3zm33.9-107.6C271 59.2 252.2 38.6 229 24.1c19.4 22.3 27.2 49.2 30.3 67.8 8-.8 16-3.5 24.1-8.2zM260 146c-1.7 14-4.6 26.8-8.1 38 7.5 6.1 20.5 18.5 24.2 46.4 11.7-18.5 19.5-39.7 22.1-62.5-6.9-6.8-14.6-11.7-27.7-17.5-2.3-1.4-6-2.8-10.5-4.4zm26.5-55.6c-8.8 5.1-17.5 7.8-26 9 .9 7.7 1 13.1 1 14.9.2 8.4 0 16.6-.7 24.3 5.5 1.9 10.2 3.7 13.1 5.3 9.5 4.2 17.8 8.6 25.2 14.9.2-2.7.3-5.4.3-8.1-.1-21.6-4.6-42-12.9-60.3z" fill="#fff"/></svg>