<svg xmlns="http://www.w3.org/2000/svg" viewBox="0 0 239.1 300"><path class="st0" d="M138.6 43.2v93.5L123 155.3l-12.6-14.4V43.2h28.2zm-13.1 174.3h3c-4.6 12.3-11.4 21.1-20.2 27.1-6.3 4.2-13.5 6.8-21.9 8 2.1-19.9 18.9-35.1 39.1-35.1zm8.5.8c17.7 3.8 31.2 19 31.2 37.6-8.9.8-17.3 3.4-24 8-10.5 6.3-18.5 16.5-23.6 30.5-17.3-3.8-30.3-18.2-31.2-35.9 9.7-1.3 18.1-4.2 25.3-9.3 10.1-6.8 17.6-16.9 22.3-30.9zm30.8 43.2c-2.5 19-19 33.8-39.2 33.8h-2.5c5.1-12.3 11.8-21.1 21.1-26.6 5.8-3.9 12.9-6.4 20.6-7.2zm-129.5 3.3l48-57.1 14.8 16.1c-8.4 7.2-13.9 16.9-15.2 28.3l-.4 3.4v1.3-.4l.4 2.1c.4 8.4 3.4 16.5 8.4 23.3l-13.5 15.7c-2.5 3-7.6 3.8-11.4 1.3l-30.3-23.3c-1.7-1.3-2.5-2.9-2.9-5.1 0-2.2.5-4.3 2.1-5.6zm135.8 30.5l-11.4-12.7c4.6-5.9 7.6-13.1 8.9-20.7l.4-4.2-.4-2.1c0-19.5-13.9-36.4-33.7-40.6l-1.7-.4-4.6-.4h-3c-8 0-15.2 2.1-21.9 5.9l-59.9-67.2c-2.5-3-2.9-6.8-1.3-9.7 3.4-3 6.3-5.9 9.3-8.9l-50.6-55c-.8-.8-.8-2.1 0-3l5.9-5.9c.8-.8 4.6-3.4 5.5-2.5l51 55c1.7-1.3.8-.4 2.5-2.1l5.9-5.5c2.9-3 8-2.6 11 .8l127.3 142.5c3 3 2.5 8-.4 11L182 295.7c-1.7 1.3-3.8 2.1-5.5 2.1-2.1 0-4.2-1.2-5.4-2.5zm-43.5-139.6l31.2-36.8c2.1-2.5 5.9-3.4 9.3-2.5 3.4 2.5 6.7 5.5 10.5 8l47.2-57.9c.9-1.3 2.1-1.3 3-.4l6.7 4.7c.8.8 4.2 3.8 3.4 5.1l-47.2 57.9c1.7 1.3.8.8 2.5 2.5l6.3 4.6c3.4 2.5 3.8 7.2.8 10.6l-37.5 44.4-36.2-40.2zm45.1-137h3c6.3 0 11.4 5.1 11.4 11.4v6.8h-28.2v-4.2c-.1-7.6 6.3-14 13.8-14zm11.4-15.2l-8.8.4c-2.9-3.8-6.3-4.2-10.1-.8-3.4-3.4-6.7-4.2-10.1-.4-1.7-3-6.7-4.2-9.7.4 0-2.5-8-3.8-10.1 0l-8.4.4v8c3.4 0 6.3.4 9.3.4 3.4 4.2 6.7 3.4 10.5.4 1.3 3.4 6.8 3.8 8.9.4 3.4 3 6.3 3.8 10.1-.8 3.4 4.2 7.1 4.6 10.9.4h7.6V3.5zm-118.8.9h8.9C77.1 1 80.5.2 84.3 3.5c3.4-3 6.7-4.2 10.1-.4 1.7-3 6.8-3.8 9.7.8.4-3 8-4.2 10.1 0h8.4v8c-3 .4-6.3.4-9.3.4-3.4 4.6-6.7 3.8-10.5.8-1.3 3-6.7 3.8-8.9 0-2.9 3-6.3 3.8-10.1-.4-3.4 3.8-7.2 4.2-11 0h-7.6V4.4zm121.8 38.8V108l-9.3 11.4c-2.5-2.1-5.1-3.8-7.6-5.5l-.4-.4-.4-.4c-3.8-1.3-7.6-.8-10.5 1.3v-71h28.2zm0 130.7v53.3l-23.2-25.8 23.2-27.5zM75.4 18.3h3.4c6.3 0 11.4 5.1 11.4 11.4v7.2H61.5v-5.1c0-7.6 6.3-13.5 13.9-13.5zm14.7 24.9v75.3l-4.6-5.1c-4.2-4.6-11.4-5.1-16-.8l-5.9 5.5-2.1-2.5V43.2h28.6zM61.5 227.6v-49.5l21.9 24.1-21.9 25.4zm62.8-210.2h3c6.3 0 11.4 5.1 11.4 11.4v8h-28.2V31c-.1-7.2 5.8-13.6 13.8-13.6z" fill="#fff"/></svg>