<svg id="Layer_1" xmlns="http://www.w3.org/2000/svg" viewBox="0 0 300 300"><style>.st0{fill:#fff}</style><path class="st0" d="M69.2 38.1C42.6 54 28.9 81.4 24.2 92.4c1.6-3.8 4.7-10.4 9.4-18 7.3-11.8 18.9-25.9 34.5-35l.9-.3v.6s-.4.8-.3 2.1c0 1.3-.1 3.1 0 5.2.2 4.2.6 9.3 1.5 13.2v.2l-.2.1s-.4.4-1.1 1.2c-.7.8-1.7 1.8-3 3.2-2.5 2.7-6 6.5-9.7 10.6-7.4 8.4-15.8 18.5-19.9 25.3l-.1.2H36s-5.9-.9-12.9-4.8l-.2-.1c-.1.3-.2.5-.2.6 0 .1 0 .1-.1.2 6.6 3.6 12.3 4.8 13.6 5h.1c4.6-7.7 13.3-18.1 20.9-26.6 7-7.9 13.1-14.1 14.1-15.1-1.9-7.6-2.1-19.3-2.1-22.1z"/><path class="st0" d="M36.8 105.3c5.5-9.2 15-20.4 23.1-29.3 7.5-8.2 13.9-14.5 14.9-15.5-2.1-9.3-2.3-23.7-2.4-26.7-38.2 22.6-50.7 60.5-52.1 65.1 0 .1 0 .1-.1.2 8 4.4 14.8 5.8 16.4 6.1.1 0 .1 0 .2.1zm-16-6.8l-.2-.1.1-.3s12.1-40.8 50.1-63l.3-.3v.6s.2.2.2.7c0 .4.1 1.1.1 1.9 0 1.6.2 3.9.3 6.4.3 5.1.9 11.4 1.9 16.1l.1.2-.1.1-1.2 1.2c-.7.8-1.8 1.9-3.2 3.2-2.7 2.8-6.3 6.6-10.3 11-7.9 8.7-17.1 19.6-22.1 28l-.1.2h-.2c.1-.1-7.2-1.2-15.7-5.9zm181.9 30.3c.8.1 1.3.2 1.6.2 13.2-15.3 18.2-36.9 18.7-39.5v-.1c-4.3-5.6-12-12.5-19.3-18.5-7.4-6-14.4-11.1-17.2-13.1-.5-.4-.9-.6-1.1-.8-16.7 4.9-36.3 15.5-40.9 18.1-.4.2-.6.4-.8.5l11 46.6c8.8 1.6 40.2 5.6 48 6.6zM145 76.2s21.8-12.5 40.1-17.8h.2l.1.1s6.7 4.7 14.5 10.8c7.8 6.2 16.8 13.9 21.5 20.1l.1.1v.2s-4.4 22.5-18.1 38.1l-.1.1h-.2s-38.2-4.8-47.5-6.5h-.2l-10.6-45.1.2-.1z"/><path class="st0" d="M54.3 74.7C60.8 67.2 66.6 61 67.6 60 66.2 54 66 44.9 66 42.5c-12.6 7.5-22.4 19.4-29.3 30-7 10.7-11 20-11.9 22.1 0 0 0 .1-.1.1 5.3 2.8 9.7 3.8 10.8 4 3.7-6.3 11.7-15.9 18.8-24zm147.3 52.4c.7.1 1.2.2 1.5.2 12.5-14.5 17.2-35 17.7-37.4v-.1c-4-5.3-11.4-11.9-18.3-17.5-7-5.7-13.7-10.5-16.3-12.4-.5-.4-.8-.6-1-.7-15.8 4.6-34.4 14.7-38.8 17.2-.3.2-.6.3-.7.4l10.4 44.2c8.3 1.3 38.1 5.1 45.5 6.1zM147 77.2s20.6-11.9 37.9-16.8h.2l.1.1s6.3 4.4 13.7 10.3c7.4 5.9 15.9 13.2 20.4 19l.1.1v.2s-4.2 21.3-17.1 36.1l-.1.1h-.2s-36.1-4.6-44.9-6.1h-.2l-10-42.7.1-.3zM44 211.4c18 25.8 40.2 38.5 42.8 40 .1 0 .4.1.4.1 6.5-1.1 14.3-4.9 20.9-8.8 6.6-4 12.2-8.1 14.4-9.7.3-.2.6-.4.7-.6-4.6-9.1-9.3-22.1-12.8-32.9-3.3-9.9-5.6-17.9-6-19.3L57 171.6c-11.4 20.6-12.5 36.6-12.5 39.5 0 .1-.5.2-.5.3zm13.6-38.6l.1-.2L104 181l.1.2s.1.5.4 1.5c.3.9.7 2.3 1.2 4 1 3.4 2.5 8.1 4.2 13.3 3.5 10.5 8 23.1 12.4 31.7l.1.2-.2.2s-5 4-11.9 8.4c-6.8 4.3-15.5 9-22.8 10.1h-.1l-.1-.1S64.2 238.1 46 211.6l-.1-.1v-.6c.1-2.7.6-18.2 11.7-38.1z"/><path class="st0" d="M72.9 60.4C71 51.9 70.8 38.9 70.7 36c-35 20.8-47.9 57.4-49.4 61.9 0 .1 0 .1-.1.2 7.3 4 13.6 5.3 15 5.6h.1c5.1-8.5 14.2-19.3 22-27.9 7.5-8.2 13.7-14.4 14.6-15.4zm-36.3 42.1l-.1.2h-.2s-6.6-1-14.4-5.3l-.2-.1.1-.3S35 57.5 69.5 37.3l.6-.3v.6s-.1.9 0 2.3.1 3.5.2 5.8c.2 4.6.7 10.3 1.7 14.6v.2l-.1.1s-.4.4-1.1 1.2c-.7.8-1.8 1.9-3.1 3.2-2.6 2.7-6.1 6.5-10 10.8-7.8 8.6-16.6 19-21.1 26.7z"/><path class="st0" d="M23.6 95.8c5.9 3.2 11 4.3 12.2 4.5 4.2-7 12.5-16.9 19.9-25.2 6.8-7.7 12.7-13.9 13.7-14.9-1.5-6.9-1.7-17.3-1.8-19.9-22 13.1-35.3 36.4-40.9 48.3 1.8-3.7 4.5-8.8 8-14.4C41.8 62.9 52 49.7 65.8 41.6l.2-.3v.6s.3.7.4 1.9c0 1.2.2 2.8.3 4.6.2 3.7.7 8.2 1.5 11.7l.1.2-.1.1s-.4.4-1.1 1.2c-.7.7-1.7 1.8-2.9 3.2-2.5 2.7-5.8 6.4-9.4 10.5-7.1 8.2-15.2 17.9-18.8 24l-.1.2h-.2s-5.3-.8-11.5-4.3l-.3-.2c-.1.3-.2.5-.2.6-.1.1-.1.1-.1.2zm63.9 149.6c.1 0 .1.1.1.1 5.3-.9 11.5-3.9 16.7-7.2 5.3-3.2 9.7-6.6 11.3-7.9.2-.2.4-.3.5-.4-3.8-7.5-7.7-18.5-10.8-27.6-2.8-8.4-4.8-15.2-5.1-16.5l-38.9-7.1c-9.4 16.8-9.8 30-9.8 32.3v.3c14.7 21.1 33.7 32.6 36 34zM62.1 180l.1-.2 37.7 6.9.1.2s.1.4.4 1.2c.2.8.6 2 1 3.4.9 2.9 2.1 6.9 3.6 11.3 2.9 8.9 6.8 19.5 10.3 26.5l.1.2-.2.2s-3.9 3.3-9.3 6.7c-5.4 3.5-12.2 7.2-18.1 8.2h-.1l-.1-.1s-20-11.4-34.8-32.9l-.1-.1v-.5c-.1-2.2.3-14.8 9.4-31zm142.8-47.7c.9.1 1.5.2 1.7.2 14.6-16.9 20.1-40.7 20.7-43.6v-.1c-4.7-6.2-13.2-13.8-21.4-20.4-8.2-6.6-15.9-12.2-19-14.4-.6-.4-1-.7-1.2-.9-18.4 5.4-40.1 17.1-45.2 20-.4.2-.7.4-.9.5l12.1 51.5c9.9 1.7 44.6 6.1 53.2 7.2zm-63.8-58.1s24.2-13.9 44.4-19.8h.2l.1.1s7.4 5.2 16.1 12c8.7 6.9 18.7 15.4 23.9 22.3l.1.1v.2s-4.9 24.9-20 42.3l-.1.1h-.2s-42.3-5.4-52.7-7.2h-.2l-11.8-50 .2-.1z"/><path class="st0" d="M87.6 243.9l.1.1c5-.8 10.8-3.7 15.7-6.7 4.9-3 9-6.2 10.6-7.4.2-.2.4-.3.5-.4-3.6-7.1-7.3-17.6-10.2-26.3-2.6-8-4.6-14.6-4.9-15.8l-36.8-6.7c-8.9 15.9-9.3 28.3-9.3 30.5v.3c13.7 19.9 32.1 31.1 34.3 32.4zm-24.4-62.1l.1-.2 35.5 6.5.1.2.3 1.2c.2.8.6 1.9 1 3.3.8 2.8 2 6.6 3.4 10.8 2.8 8.5 6.4 18.6 9.8 25.2l.1.2-.2.2s-3.6 3.1-8.6 6.3c-5 3.3-11.4 6.8-17 7.7h-.1l-.1-.1S68.2 232 54.3 211.7l-.1-.1v-.5c0-2.1.4-14 9-29.3z"/><path class="st0" d="M47 211.4c17 24.6 38 37 40.6 38.5.1 0 0 .1.1.1 6.2-1 13.5-4.6 19.7-8.4 6.3-3.8 11.5-7.7 13.5-9.3.3-.2.5-.4.7-.5-4.4-8.7-8.9-21.2-12.3-31.6-3.1-9.5-5.4-17.2-5.8-18.6l-45.3-8.3c-11 19.7-11.4 35-11.4 37.7 0 .2.2.3.2.4zm11.7-36.8l.1-.2 44.1 8 .1.2s.1.5.4 1.4c.3.9.7 2.2 1.1 3.8 1 3.3 2.4 7.8 4 12.8 3.3 10.1 7.7 22.2 11.9 30.4l.1.2-.2.2s-4.8 3.9-11.2 8c-6.5 4.1-14.7 8.5-21.6 9.6h-.1l-.1-.1S65 236.7 47.6 211.5l-.1-.1v-.5c.1-2.6.6-17.3 11.2-36.3zm145.1-44c.8.1 1.4.2 1.7.2 13.9-16.1 19.1-38.8 19.7-41.6v-.1c-4.5-5.9-12.6-13.2-20.4-19.4C197 63.4 189.6 58 186.7 56c-.6-.4-1-.7-1.2-.8-17.6 5.1-38.2 16.3-43.1 19-.4.2-.7.4-.9.5l11.5 49.1c9.5 1.5 42.6 5.7 50.8 6.8zm-60.7-55.4s23-13.2 42.3-18.8h.2l.1.1s7 4.9 15.3 11.4 17.8 14.7 22.7 21.2l.1.1v.2s-4.7 23.7-19 40.2l-.1.1h-.2s-40.3-5.1-50.1-6.8h-.2L143 75.3l.1-.1z"/><path class="st0" d="M48 211.4c16 23.5 36.8 35.6 39.3 37 .1 0 .2.1.2.1 5.9-1 12.9-4.4 18.8-8 6-3.6 10.9-7.3 12.8-8.8.3-.2.5-.4.6-.5-4.2-8.3-8.5-20.3-11.8-30.3-3-9.1-5.2-16.6-5.6-17.9l-43.2-7.9C48.7 193.8 48 208.4 48 211c.1.2 0 .3 0 .4zm11.8-35l.1-.2 41.9 7.6.1.2s.1.5.4 1.4c.3.9.6 2.1 1.1 3.7.9 3.1 2.3 7.5 3.9 12.3 3.2 9.7 7.4 21.3 11.4 29.1l.1.2-.2.2s-4.5 3.7-10.6 7.6c-6.1 3.9-13.8 8.1-20.5 9.1h-.1l-.1-.1s-21.6-11.9-38.1-35.9l-.1-.1v-.5c.2-2.5.7-16.6 10.7-34.6z"/><path class="st0" d="M87.5 246.9c.1 0 .1.1.1.1 5.6-.9 12.1-4.2 17.7-7.6 5.6-3.4 10.3-7 12.1-8.4.2-.2.4-.3.6-.5-4-7.9-8.1-19.4-11.3-29-2.9-8.8-5-15.9-5.3-17.2l-41-7.5c-10 17.9-10.4 31.8-10.4 34.3v.3c15.3 22.3 35.1 34.1 37.5 35.5zm-26.6-68.7l.1-.2 39.8 7.2.1.2s.1.5.4 1.3c.2.8.6 2.1 1.1 3.6.9 3 2.2 7.2 3.7 11.8 3.1 9.3 7.1 20.4 10.9 27.8l.1.2-.2.2s-4.2 3.5-9.9 7.2-13 7.7-19.3 8.7h-.1l-.1-.1s-20.8-11.7-36.4-34.4l-.1-.1v-.5c-.1-2.4.4-15.8 9.9-32.9zm143.6 68.7c.3 1.1.7 2.7 1.4 4.4 1.4 3.4 3.8 7.5 7.9 10.2.1 0 .2 0 .3-.1.3-.1.8-.2 1.3-.4 1.2-.4 2.8-.9 4.8-1.7 4-1.6 9.4-4.2 14.9-8 10.9-7.6 22.1-20.2 23.8-40.2l-24.2-2.9c-.8 1.1-5.2 7.3-10.9 14.6-6.2 8-13.8 17.2-19.8 22.6 0 .1 0 .2.1.3.2.1.3.6.4 1.2zm1.1-1.8c4.8-4.2 11-11.6 16.5-18.6 5.5-7 10.3-13.6 12.1-16.1.5-.7.8-1.1.8-1.1l.1-.2 23.2 2.8v.3c-1.5 18.7-12.4 30.9-22.9 38.4-10.5 7.5-20.7 10.2-20.7 10.2h-.1l-.1-.1c-4-2.6-6.2-6.4-7.5-9.6-1.3-3.2-1.5-5.7-1.5-5.7v-.2l.1-.1z"/><path class="st0" d="M87.6 242.4s.1 0 .1.1c4.7-.8 10.1-3.5 14.7-6.3 4.6-2.9 8.4-5.8 9.8-7 .2-.1.3-.3.4-.3-3.4-6.7-7-16.7-9.7-25-2.5-7.6-4.4-13.9-4.7-15.1l-34.6-6.3c-8.3 15-8.7 26.7-8.7 28.8v.2c13 18.7 30.6 29.6 32.7 30.9zm115 4.4c.3 1.2.9 3 1.7 4.9 1.6 3.8 4.3 8.2 8.7 11.1.1 0 .2 0 .3-.1.3-.1.8-.2 1.4-.4 1.2-.4 2.9-.9 5-1.7 4.2-1.6 9.8-4.2 15.6-8.2 11.4-7.9 23.2-21.2 25.1-42.8l-26.2-3.2c-.8 1.1-5.3 7.4-11.2 15-6.4 8.2-14.4 17.9-20.9 23.6 0 .1 0 .2.1.3.2.4.3.9.4 1.5zm1-2c5.2-4.6 11.8-12.3 17.5-19.6 5.7-7.2 10.6-14 12.5-16.6.5-.8.8-1.2.8-1.2l.1-.2 25.2 3.1v.3c-1.6 20.4-13.1 33.3-24.2 41-11.1 7.7-21.7 10.4-21.7 10.4h-.1l-.1-.1c-4.3-2.8-6.8-7-8.3-10.6-1.5-3.5-1.8-6.4-1.8-6.4v-.2l.1.1zm-3.1-119.5c.7.1 1.1.1 1.4.2 11.8-13.7 16.3-33 16.8-35.4V90c-3.8-5-10.7-11.2-17.3-16.5-6.6-5.4-12.9-10-15.4-11.7-.5-.3-.8-.6-1-.7-15 4.3-32.5 13.9-36.7 16.2-.3.2-.5.3-.7.4l9.8 41.8c7.9 1.3 36.1 4.9 43.1 5.8zm-51.6-47s19.5-11.2 35.7-15.9h.2l.1.1s5.9 4.1 12.9 9.7c7 5.5 15 12.4 19.2 18l.1.1v.2s-4 20-16.1 34l-.1.1h-.2s-34-4.3-42.3-5.8h-.2l-9.5-40.3.2-.2z"/><path class="st0" d="M198.2 121.8c.6.1 1 .1 1.2.2 10.5-12.1 14.4-29.2 14.8-31.3v-.1c-3.4-4.4-9.5-9.9-15.3-14.6-5.9-4.8-11.4-8.8-13.6-10.4-.4-.3-.7-.5-.8-.6-13.2 3.8-28.7 12.3-32.4 14.3-.3.1-.5.3-.6.3l8.7 36.9c7 1.3 31.9 4.5 38 5.3zm8.2 125.1c.2 1 .6 2.4 1.2 4 1.2 3.1 3.3 6.7 7.1 9.2.1 0 .2-.1.3-.1.3-.1.7-.2 1.3-.4 1.1-.4 2.7-.9 4.6-1.8 3.8-1.6 8.9-4.1 14.1-7.8 10.4-7.3 21.1-19.2 22.6-37.5l-22.2-2.7c-.8 1.1-5.1 7.1-10.5 14.2-6 7.7-13.3 16.6-18.8 21.6v.3c.1.1.2.5.3 1z"/><path class="st0" d="M200.7 246.8c.4 1.4 1 3.2 1.9 5.3 1.8 4.1 4.8 9 9.6 12.1.1 0 .2 0 .4-.1.3-.1.8-.2 1.5-.4 1.3-.4 3.1-.9 5.3-1.7 4.4-1.6 10.3-4.3 16.3-8.4 11.9-8.2 24.3-22.2 26.3-45.4l-28.2-3.4c-.8 1.1-5.4 7.6-11.5 15.4-6.6 8.5-15 18.5-21.9 24.7 0 .1 0 .2.1.4-.1.2 0 .8.2 1.5zm.9-2.2c5.6-5 12.5-13 18.5-20.5s11-14.4 12.9-17.1l.9-1.2.1-.2 27.2 3.3v.3c-1.7 22-13.8 35.6-25.4 43.6-11.6 8-22.7 10.5-22.7 10.6h-.1l-.1-.1c-4.6-3-7.5-7.6-9.1-11.5-1.7-3.9-2.2-7-2.2-7v-.2zm-2.3-121c.6.1 1.1.1 1.3.2 11.1-12.9 15.3-31.1 15.8-33.3v-.1c-3.6-4.7-10.1-10.5-16.3-15.6-6.3-5.1-12.2-9.4-14.5-11-.4-.3-.7-.5-.9-.6-14.1 4.1-30.6 13.1-34.5 15.3-.3.2-.5.3-.6.4l9.3 39.3c7.4 1.1 33.9 4.5 40.4 5.4zm-48.4-44.3s18.3-10.5 33.5-14.9h.2l.1.1s5.6 3.9 12.1 9.1c6.6 5.2 14.1 11.7 18 16.9l.1.1v.2s-3.7 18.8-15.1 31.9l-.1.1h-.2s-31.9-4.1-39.7-5.4h-.2l-8.9-37.8.2-.3z"/><path class="st0" d="M198.4 245c.1.4.3 1 .5 1.7.4 1.5 1.1 3.5 2.1 5.7 2 4.5 5.3 9.7 10.4 13.1.1 0 .2 0 .4-.1.4-.1.9-.2 1.5-.4 1.3-.3 3.2-.9 5.5-1.7 4.6-1.6 10.7-4.3 17-8.6 12.5-8.5 25.4-23.1 27.5-48l-30.2-3.7c-.8 1.1-5.5 7.8-11.8 15.8-6.9 8.7-15.6 19.1-23 25.7 0 .1 0 .3.1.5zm1.2-.6c6.1-5.4 13.3-13.7 19.4-21.5 6.2-7.7 11.3-14.8 13.3-17.5l.9-1.2.1-.2 29.2 3.6v.3c-1.9 23.7-14.5 37.9-26.6 46.2-12.1 8.3-23.7 10.7-23.8 10.7h-.1l-.1-.1c-5-3.2-8.1-8.3-9.9-12.5-1.9-4.2-2.5-7.6-2.5-7.6v-.2h.1z"/><path class="st0" d="M194.3 244.1c0 .1.1.3.1.5.1.5.3 1.2.6 2 .5 1.7 1.4 4.1 2.6 6.6 2.4 5.1 6.3 11.2 12.1 15 .1 0 .2 0 .4-.1.4-.1.9-.2 1.7-.3 1.4-.3 3.5-.9 6-1.7 5-1.6 11.6-4.4 18.4-9 13.5-9.1 27.6-25.1 29.9-53.3l-34.2-4.2c-1.7 2.6-21.5 30.1-37.6 44.5zm37.9-43.4l33.2 4.1v.3c-2.1 27-15.9 42.6-29 51.5-13.2 8.9-25.8 11-25.8 11h-.1l-.1-.1c-5.7-3.7-9.3-9.5-11.6-14.4-2.3-4.9-3.1-8.9-3.1-8.9v-.2l.1-.1c13.8-12.2 31.3-36 35.5-41.8.6-.8.9-1.3.9-1.3v-.1z"/><path class="st0" d="M196.3 244.3c0 .1.1.3.1.5.1.4.3 1.1.5 1.9.5 1.6 1.3 3.8 2.4 6.2 2.2 4.8 5.8 10.5 11.2 14 .1 0 .2 0 .4-.1.4-.1.9-.2 1.6-.4 1.4-.3 3.3-.9 5.7-1.7 4.8-1.6 11.2-4.4 17.7-8.8 13-8.8 26.5-24.1 28.7-50.7l-32.2-3.9c-.8 1.1-5.7 7.9-12.2 16.1-6.9 9.2-16 19.9-23.9 26.9zm36.4-41.8l.1-.2 31.2 3.8v.3c-2 25.3-15.2 40.3-27.8 48.9-12.6 8.6-24.8 10.9-24.8 10.9h-.1l-.1-.1c-5.3-3.5-8.7-8.9-10.8-13.4-2.1-4.6-2.8-8.2-2.8-8.3v-.2l.1-.1c13-11.5 30.1-34.8 34.1-40.4.5-.7.9-1.2.9-1.2z"/><path class="st0" d="M176.5 2C94.9-12.7 16.9 41.7 2.2 123.3-12.4 205 42 283 123.6 297.6c81.6 14.6 159.7-39.7 174.3-121.4C312.5 94.6 258.2 16.6 176.5 2zm101 82.7l.5 1c11.4 23.3 14.3 50.3 14.3 50.3l-.7.1c-.9-6.2-4.1-14.7-7.3-22.4-3.3-7.6-6.6-14.4-8-17-.4-.7-.6-1.2-.6-1.2l-.1-.1 1.9-10.7zM102.4 63.1c11.4 2.1 22.9 5.8 30.9 10.1 1 4.3 2 8.6 2.9 12.8 3.2 13.9 6.4 28.2 10.5 41.8-8.3 6.8-31.7 27.1-41.2 48.2-7.6-1.4-15.7-2.8-23.6-4.2-5.1-.9-10.1-1.8-14.9-2.6-3.8-.7-7-1.3-9.8-1.8-7.2-11-11.6-25.9-14.1-36.7-1.6-6.8-2.6-12.8-3.1-16.7-.4-2.3-.6-4.2-.7-5.3 12.2-18.1 26.1-33 39.3-46.5 5.5-1.1 14-.8 23.8.9l.1-.8-.1.8zm36.5 10.2l.2-.1s25.4-14.6 46.6-20.7h.2l.1.1s7.8 5.4 16.9 12.6c9.1 7.2 19.6 16.2 25 23.4l.1.1v.2s-5.2 26.2-21 44.4l-.1.1h-.2s-44.4-5.6-55.3-7.5h-.2l-12.3-52.6zm-82.3 97.5l48.4 8.8.1.2s.2.5.4 1.5c.3 1 .7 2.4 1.2 4.1 1.1 3.5 2.6 8.4 4.4 13.8 3.6 10.9 8.3 24 12.9 33l.1.2-.2.2s-5.3 4.2-12.5 8.8c-7.2 4.5-16.3 9.4-23.9 10.6h-.1l-.1-.1s-23.9-12.7-42.9-40.4l-.1-.1v-.6c0-3 .6-19.2 12.2-40h.1zm52.1 7.5c5.3-12.4 16.3-24.8 24.5-33.1 3.9-3.9 8.1-7.8 12.5-11.6 1.8-1.6 3.2-2.7 4-3.4 5.8.9 11.6 1.6 17.6 2.4 9.9 1.3 20.2 2.6 31.7 4.7 2.5.5 5.1.9 7.6 1.4.5.8 1 1.7 1.6 2.7 6 9.9 19.9 35 20.7 55.3-14.3 19.7-26.9 34.4-38.4 45-9.5 1.2-20.1.8-31.5-1.3-9.7-1.7-18.1-4.3-23.5-6.2-3.1-1.1-5.5-2-6.9-2.6-.2-.1-.4-.1-.5-.2-8.7-17.2-14.6-36.3-19.4-53.1zm101.5-41.1c10.8-13.4 18.8-30.3 22.5-47.9 7.3 0 14.1.6 20.3 1.7 7.6 1.4 14.3 3.6 19.9 6.5 7.3 12.3 15.8 34 17.6 50.6-.1.5-.2 1-.3 1.8-1.3 7.4-6.9 32.7-22.9 49.5-6.6-.2-22.2-1.4-31.2-3-1.3-.2-2.4-.4-3.3-.7-1.4-22.5-16.9-49.4-22.6-58.5zM191.7 13.4C227.1 24.1 257 48 273 78.5c0 .3.7.5.9.7-.1-.2-.1-.5-.2-.7-.2 1.8-.2 4-.5 6.5-.2 2.5-.4 5.2-.7 7.9-10.7-5-24.6-7.6-40.7-7.5-6.9-9.2-34-33-44.7-37.3-.6-11.3-3.5-24.7-5.5-32.1 3.4-.4 6.7-1.5 10.1-2.6zM78.2 27c25.2-14.9 55-22.2 85.9-19.2h.1c4.7 2.7 9.1 5.3 13.5 7.4 2.1 6.9 5.1 21.3 5.7 32.8-13.6 2.5-40.9 16.7-48.5 21.7-8.2-4.4-20-8.3-31.8-10.4-9.7-1.7-18.2-2.1-24-1-1.5-7.8-2.2-20.6-.9-31.3zM19.5 99.2S30.6 57.1 72 32.9v-.3.6s.5.3.5.7c0 .5.3 1.2.3 2.1 0 1.8.2 4.2.4 7 .3 5.5 1 12.4 2.2 17.6l.1.2-.1.1-1.2 1.2c-.8.8-1.9 1.9-3.2 3.3-2.7 2.8-6.5 6.7-10.5 11.1-8.2 8.9-17.7 20.2-23.1 29.4l-.1.2h-.2s-7.9-1.2-17.2-6.4l-.2-.1-.2-.4zm8.6 122.4c-16.7-28.3-23.7-62.4-17.5-97.2 1.3-7.2 3.1-14.1 5.4-20.8 6.4 3 15 5.3 19.6 6.3 1 8.4 5.3 39.1 17.8 58.8-6 9.5-15.1 27-13.7 43.2-4 3.1-7.9 6.4-11.6 9.7zm80.7 63.7c-33.5-10.3-61-32.2-78.6-60.4 3.5-3.2 7.3-6.3 11.2-9.4 7.1 11.2 30.9 36.1 43.2 40.5 6.2 12.7 16.1 22.7 24.2 29.3.2 0 .4.1.6.2-.2-.1-.4-.2-.6-.2zm71.4 3.2c-17.5 3.7-35.9 4.2-54.6.9-2.4-.4-4.7-.9-7-1.5-8.3-5.7-21.5-16.5-29.6-31.7 8.8-1.9 28.4-11.6 38.3-21 5.2 2.1 16.9 6.4 31.1 8.9 11.3 2 21.9 2.5 31.4 1.4 4.7 13.1 10 21.4 16.2 25.4-6.2 5.4-13.4 10.5-21.5 15.2-1.4.8-2.8 1.6-4.3 2.4zm13.6-3.6c6.1-4 11.6-8.2 16.5-12.7 7-1.4 15.7-3.7 25.6-9-12.7 9.5-27 16.9-42.1 21.7zm42.7-27.1c-13.7 9.2-26.8 11.2-26.9 11.2h-.1l-.1-.1c-6-3.9-10-10.1-12.4-15.4-2.5-5.2-3.4-9.5-3.4-9.5v-.2l.2-.1c14.7-13 32.6-37.3 36.8-43.2.6-.8.9-1.3.9-1.3l.1-.2 35.2 4.3v.3c-2.3 28.7-16.6 45-30.3 54.2zm54.1-83.4c-4.5 25.2-15.4 47.6-30.7 66 6.8-13.2 10.3-26.2 10.5-38.9 13.3-14.1 19.6-33.2 22.3-44.9-.3 5.9-1 11.9-2.1 17.8z"/><path class="st0" d="M278 95.2c1.4 2.5 3.8 8.1 5.9 13 .6 1.5 1.3 3 1.8 4.3-2.7-9.2-6-17.5-7.1-20.4l-.6 3.1z"/><path class="st0" d="M290.4 128.1c-.4-2.4-1-5.2-1.7-8.4-2.1-9.4-5.5-21.5-10.9-32.8l-1.4 8.4c.5.9 3.7 7.1 7.1 14.9 2.5 5.6 5.1 12.1 6.9 17.9zm-13-32.7l-.1-.1.9-4.4.2-1.1.4 1s5.6 13.3 9 26.9l-.6.2s-.1-.3-.3-.8c-.2-.5-.5-1.2-.8-2.1-.7-1.7-1.7-4.1-2.7-6.6-2.2-5-4.7-10.6-6-13z"/></svg>