<svg xmlns="http://www.w3.org/2000/svg" viewBox="0 0 300 300"><path d="M183.2 274.1c.4 0 .8.1 1.2.1h91.3c10.7 0 19.4-8.6 19.4-19.3V44.3c0-10.6-8.7-19.3-19.4-19.3h-91.3c-.4 0-.8 0-1.2.1V0L5 23.7v252.1L183.2 300v-25.9zm1.3-238h91.2c4.6 0 8.3 3.7 8.3 8.3v210.5c0 4.6-3.7 8.3-8.3 8.3h-91.3c-.4 0-.8-.1-1.2-.1m-105-88.5c-3.9 1.3-11.3 3-18.6 2.8-9.9-.3-17-3.1-21.8-8.2-4.8-4.9-7.5-12.3-7.4-20.6.1-18.7 12.8-29.6 30.5-30.1 7.1-.2 12.7 1.2 15.4 2.5l-2.7 10.6c-3.1-1.3-6.9-2.4-12.9-2.3-10.3.2-17.9 6.3-17.9 18.6 0 11.7 6.9 18.8 17 18.9 2.9.1 5.1-.2 6.1-.7V154l-8.5-.1v-10.2h20.7l.1 30.9zm23.3 3.4l-13.2-.4v-59.1l13.2-.3V178zm49.6-49.4l-24.1.3v14l22.5-.1v11.5l-22.5-.2v24.6l-13.8-.4v-60.4l37.9-.9v11.6z" fill="#fff"/></svg>