<svg xmlns="http://www.w3.org/2000/svg" viewBox="0 0 300 300"><path d="M96.3 132.3H38.5C17.8 132.3 1 115.7 1 95.2v-57C1 17.7 17.8 1.1 38.5 1.1h57.8c20.7 0 37.5 16.6 37.5 37.1v57.1c0 20.4-16.8 37-37.5 37zM38.5 24.1c-7.8 0-14.2 6.3-14.2 14v57.1c0 7.7 6.4 14 14.2 14h57.8c7.8 0 14.2-6.3 14.2-14v-57c0-7.7-6.4-14-14.2-14H38.5zm224 108.2h-57.7c-20.7 0-37.5-16.6-37.5-37.1v-57c0-20.4 16.8-37.1 37.5-37.1h57.7c20.7 0 37.5 16.6 37.5 37.1v57.1c0 20.4-16.8 37-37.5 37zM204.7 24.1c-7.8 0-14.2 6.3-14.2 14v57.1c0 7.7 6.4 14 14.2 14h57.7c7.8 0 14.2-6.3 14.2-14v-57c0-7.7-6.4-14-14.2-14h-57.7zM96.3 299.9H38.5C17.8 299.9 1 283.3 1 262.8v-57.1c0-20.4 16.8-37.1 37.5-37.1h57.8c20.7 0 37.5 16.6 37.5 37.1v57.1c0 20.5-16.8 37.1-37.5 37.1zM38.5 191.8c-7.8 0-14.2 6.3-14.2 14v57.1c0 7.7 6.4 14 14.2 14h57.8c7.8 0 14.2-6.3 14.2-14v-57.1c0-7.7-6.4-14-14.2-14H38.5zm224 108.1h-57.7c-20.7 0-37.5-16.6-37.5-37.1v-57.1c0-20.4 16.8-37.1 37.5-37.1h57.7c20.7 0 37.5 16.6 37.5 37.1v57.1c0 20.5-16.8 37.1-37.5 37.1zm-57.8-108.1c-7.8 0-14.2 6.3-14.2 14v57.1c0 7.7 6.4 14 14.2 14h57.7c7.8 0 14.2-6.3 14.2-14v-57.1c0-7.7-6.4-14-14.2-14h-57.7z" fill="#fff"/></svg>