<svg xmlns="http://www.w3.org/2000/svg" viewBox="0 0 300 300"><path d="M298.5 146.6c-.5-1.2-1.2-2.2-2-3.1l-32-32c-3.7-3.7-9.6-3.7-13.3 0-3.7 3.7-3.7 9.6 0 13.3l16 16H158.9V32.4l16.7 16.7c1.8 1.8 4.2 2.8 6.6 2.8 2.4 0 4.8-.9 6.6-2.8 3.7-3.7 3.7-9.6 0-13.3L156.3 3.2c-.9-.9-1.9-1.6-3-2-2.3-1-4.9-1-7.2 0-1.1.5-2.2 1.2-3 2l-32 32c-3.7 3.7-3.7 9.6 0 13.3 1.8 1.8 4.2 2.7 6.6 2.7 2.4 0 4.8-.9 6.6-2.7l16-16v108.4H32.1l16-16c3.7-3.7 3.7-9.6 0-13.3-3.7-3.7-9.6-3.7-13.3 0l-32 32C1 145.4.1 147.8.1 150.2c0 2.4.9 4.8 2.7 6.6l32.7 32.7c1.8 1.8 4.2 2.8 6.6 2.8 2.4 0 4.8-.9 6.6-2.8 3.7-3.7 3.7-9.6 0-13.3L32 159.6h108.3V268l-16-16c-3.7-3.7-9.6-3.7-13.3 0-3.7 3.7-3.7 9.6 0 13.3l32 32c1.8 1.8 4.2 2.7 6.6 2.7 2.4 0 4.8-.9 6.6-2.7l32.7-32.7c3.7-3.7 3.7-9.6 0-13.3-3.7-3.7-9.6-3.7-13.3 0L159 268V159.6h108.3l-16.7 16.7c-3.7 3.7-3.7 9.6 0 13.3 1.8 1.8 4.2 2.8 6.6 2.8 2.4 0 4.8-.9 6.6-2.8l32.7-32.7s0-.1.1-.1c.8-.9 1.5-1.9 2-3 .5-1.2.7-2.4.7-3.6 0-1.2-.3-2.4-.8-3.6z" fill="#fff"/></svg>