<svg xmlns="http://www.w3.org/2000/svg" viewBox="0 0 203.7 300"><path d="M102.3 174.2c-5.1 0-9.2 4-9.2 8.9 0 3.3 1.9 6.4 5 7.9 1.9.9 3.3 2.4 4.2 4.2.9-1.7 2.3-3.2 4.2-4.2 3.1-1.5 5-4.6 5-7.9 0-4.9-4.1-8.9-9.2-8.9zm69.4-49.5V60.4c0-33.3-26.1-60.4-58.2-60.4H91.2C59.1 0 32.9 27.1 32.9 60.4v64.2C13.3 143.1 1 169.4 1 198.4c0 55.8 45.5 101.3 101.3 101.3 55.9 0 101.3-45.4 101.3-101.3.1-29-12.2-55.3-31.9-73.7zm-43 108.3c.2.7.2 1.4.2 2 0 8.1-8.2 14.2-19.1 14.2h-15c-10.9 0-19.1-6.1-19.1-14.2 0-.7.1-1.4.2-2l6.8-29.7c-5.7-5.1-9-12.4-9-20.2 0-15.2 12.8-27.6 28.5-27.6s28.5 12.4 28.5 27.6c0 7.8-3.3 15-9 20.2l7 29.7zm23.7-122.7c-2.6-1.5-5.3-2.9-8.1-4.1-.1 0-.2-.1-.3-.1-.4-.2-.8-.3-1.2-.5-.6-.3-1.2-.5-1.7-.7-.3-.1-.5-.2-.8-.3-.9-.3-1.7-.7-2.6-1h-.1c-8.9-3.3-18.5-5.4-28.4-6.1h-.7c-.8 0-1.6-.1-2.4-.1h-7.6c-.8 0-1.6.1-2.4.1h-.7c-9.9.7-19.4 2.8-28.4 6.1h-.1c-.9.3-1.7.7-2.6 1-.3.1-.5.2-.8.3-.6.2-1.2.5-1.7.7-.4.2-.8.3-1.2.5-.1 0-.2.1-.3.1-2.8 1.3-5.5 2.6-8.1 4.1V60.4c0-23 17.4-41.7 38.9-41.7h22.3c21.4 0 38.9 18.7 38.9 41.7v49.9zm-56 120.3h11.9l-6-25.9-5.9 25.9z" fill="#fff"/></svg>