<svg id="Layer_1" xmlns="http://www.w3.org/2000/svg" viewBox="0 0 300 199.6"><style>.st0{fill:#fff}</style><path class="st0" d="M150.5 0C84.5 0 27.7 39.7 1.6 97c-.8 1.7-.8 3.8 0 5.5 26.1 57.3 83 97 148.9 97s122.8-39.7 148.9-97c.8-1.7.8-3.8 0-5.5-26.1-57.3-83-97-148.9-97zm0 168.7c-37.2 0-67.4-30.8-67.4-68.9 0-38.1 30.2-68.9 67.4-68.9s67.4 30.8 67.4 68.9-30.2 68.9-67.4 68.9z"/><path class="st0" d="M150.5 55.7c23.8 0 43.2 19.7 43.2 44.1 0 24.3-19.3 44.1-43.2 44.1-23.8 0-43.1-19.7-43.1-44.1-.1-24.3 19.2-44.1 43.1-44.1z"/></svg>