<svg id="Layer_1" xmlns="http://www.w3.org/2000/svg" viewBox="0 0 300 213"><style>.st0{fill:#fff}</style><path class="st0" d="M286.9 118.8c-8.7-10.5-19.8-17.4-33.4-20.5 4.3-6.3 6.4-13.2 6.4-20.9 0-10.7-3.9-19.8-11.7-27.4-7.8-7.6-17.2-11.3-28.3-11.3-9.9 0-18.5 3.1-25.9 9.4-6.1-14.5-16-26.2-29.5-34.9C151.1 4.4 136.2 0 120 0 97.9 0 79.1 7.6 63.4 22.7 47.8 37.8 40 56.1 40 77.5c0 1.3.1 3.5.3 6.5-12.3 5.5-22.1 13.9-29.4 25C3.6 120 0 132.1 0 145.2c0 18.7 6.8 34.6 20.5 47.9C34.2 206.4 50.7 213 70 213h170c16.6 0 30.7-5.7 42.4-17s17.6-25 17.6-41.1c0-13.5-4.4-25.5-13.1-36.1zm-88.3 23.9c-.9.9-2.1 1.3-3.6 1.3h-35v52.8c0 1.3-.5 2.6-1.5 3.6-1 .9-2.2 1.6-3.5 1.6h-30c-1.4 0-2.5-.7-3.5-1.6-1-.9-1.5-2.3-1.5-3.6V144H85c-1.4 0-2.5-.4-3.5-1.4-1-.9-1.5-2-1.5-3.3 0-1.4.5-2.5 1.4-3.4l55-52.7c.9-.9 2.1-1.3 3.6-1.3s2.7.5 3.6 1.3l54.8 52.6c1 1.2 1.6 2.4 1.6 3.6 0 1.3-.5 2.4-1.4 3.3z"/></svg>