<svg xmlns="http://www.w3.org/2000/svg" viewBox="0 0 300 300"><path d="M88.1 85.7H232l-36.6 36.7c-5 5.1-5 13.2 0 18.3 2.5 2.5 5.8 3.8 9.1 3.8s6.6-1.3 9.1-3.8l58.6-58.8c.6-.6 1.1-1.3 1.6-2l.3-.6c.3-.5.6-1.1.9-1.6.1-.3.2-.6.3-.8.2-.5.4-1 .5-1.6.2-.8.3-1.7.3-2.6 0-.9-.1-1.7-.3-2.6-.1-.5-.3-1.1-.5-1.6-.1-.3-.1-.6-.3-.8-.2-.6-.6-1.1-.9-1.6l-.3-.6c-.5-.7-1-1.4-1.6-2L213.6 4.8c-5-5.1-13.2-5.1-18.2 0s-5 13.2 0 18.3L232 59.8H88.1c-47.4 0-86 38.7-86 86.3 0 7.2 5.8 12.9 12.9 12.9s12.9-5.8 12.9-12.9c0-33.3 27-60.4 60.2-60.4zm198.4 54.2c-7.1 0-12.9 5.8-12.9 12.9 0 33.3-27 60.4-60.2 60.4H69.6l36.6-36.7c5-5.1 5-13.2 0-18.3-5-5.1-13.2-5.1-18.2 0L29.4 217c-.6.6-1.1 1.3-1.6 2l-.3.6c-.3.5-.6 1.1-.9 1.7-.1.3-.2.6-.3.8-.2.5-.4 1-.5 1.6-.2.8-.3 1.7-.3 2.6 0 .9.1 1.7.3 2.6.1.6.3 1.1.5 1.6.1.3.1.6.3.8.2.6.6 1.1.9 1.7l.3.6c.5.7 1 1.4 1.6 2L88 294.4c2.5 2.5 5.8 3.8 9.1 3.8s6.6-1.3 9.1-3.8c5-5.1 5-13.2 0-18.3l-36.6-36.7h143.9c47.4 0 86-38.7 86-86.3-.1-7.4-5.8-13.2-13-13.2z" fill="#fff"/></svg>