<?xml version="1.0" encoding="utf-8"?>
<!-- Generator: Adobe Illustrator 19.2.1, SVG Export Plug-In . SVG Version: 6.00 Build 0)  -->
<svg version="1.1" id="Layer_1" xmlns="http://www.w3.org/2000/svg" xmlns:xlink="http://www.w3.org/1999/xlink" x="0px" y="0px"
	 viewBox="0 0 300 300" style="enable-background:new 0 0 300 300;" xml:space="preserve">
<style type="text/css">
	.st0{fill:rgba(255,255,255,.30);}
</style>
<path class="st0" d="M150.5,0C67.7,0,0.6,67.2,0.6,150c0,82.8,67.1,150,149.9,150s149.9-67.2,149.9-150C300.3,67.2,233.2,0,150.5,0z
	 M247,158h-89v88.9c0,4.5-3,8.2-7.5,8.2c-4.5,0-7.5-3.7-7.5-8.2V158H53.8c-4.5,0-8.2-3.5-8.2-8c0-4.5,3.7-8,8.2-8H143V53.1
	c0-4.5,3-8.2,7.5-8.2c4.5,0,7.5,3.7,7.5,8.2V142h89c4.5,0,8.2,3.5,8.2,8C255.2,154.5,251.5,158,247,158z"/>
</svg>
