<?xml version="1.0" encoding="utf-8"?>
<!-- Generator: Adobe Illustrator 19.2.1, SVG Export Plug-In . SVG Version: 6.00 Build 0)  -->
<svg version="1.1" id="Layer_1" xmlns="http://www.w3.org/2000/svg" xmlns:xlink="http://www.w3.org/1999/xlink" x="0px" y="0px"
	 viewBox="0 0 300 256.5" style="enable-background:new 0 0 300 256.5;" xml:space="preserve">
<style type="text/css">
	.st0{fill:#fff;}
</style>
<g>
	<path class="st0" d="M185.7,42.8c-9.1,0-16.5,7.4-16.5,16.5c0,9.1,7.4,16.5,16.5,16.5c9.1,0,16.5-7.4,16.5-16.5
		C202.2,50.3,194.8,42.8,185.7,42.8z"/>
	<path class="st0" d="M150.6,148.6c-29.7,0-53.7,24.2-53.7,54c0,29.8,24.1,54,53.7,54c29.7,0,53.7-24.2,53.7-54
		C204.3,172.7,180.3,148.6,150.6,148.6z M180.9,208.9h-23.4V233c0,3.9-3.2,7-7,7c-3.8,0-7-3.1-7-7v-24.1h-23.3c-3.8,0-7-3.2-7-7
		s3.1-7,7-7h23.3v-22.8c0-3.9,3.2-7,7-7c3.8,0,7,3.1,7,7v22.8h23.4c3.8,0,7,3.2,7,7S184.7,208.9,180.9,208.9z"/>
	<path class="st0" d="M288.5,0H12.7C6.3,0,0.9,5.8,0.9,12.2v178.6c0,6.5,5.4,11.1,11.9,11.1h70.1c0-37.6,30.4-68,67.8-68
		c37.4,0,67.8,30.5,67.8,68h70.1c6.4,0,11.7-4.6,11.7-11.1V12.2C300.1,5.8,294.9,0,288.5,0z M233.3,80.9l-44.2,44.4l-67.3-67.6
		c-0.9-0.9-2.4-0.9-3.3,0l-42.7,42.9L56.4,81c-0.9-0.9-2.5-0.9-3.4,0l-31.1,31.1v-91h257.2v102.4l-42.5-42.6
		C235.7,80,234.2,80,233.3,80.9z"/>
</g>
</svg>
