<?xml version="1.0" encoding="utf-8"?>
<!-- Generator: Adobe Illustrator 19.2.1, SVG Export Plug-In . SVG Version: 6.00 Build 0)  -->
<svg version="1.1" id="Layer_1" xmlns="http://www.w3.org/2000/svg" xmlns:xlink="http://www.w3.org/1999/xlink" x="0px" y="0px"
	 viewBox="0 0 300 210.8" style="enable-background:new 0 0 300 210.8;" xml:space="preserve">
<g fill="#fff">
	<path d="M0,111.2c6.2,0,11.6,0,16.8,0c2.3-6.7,1.5-9.2-3.9-12.9c-17-11.6-17.1-25.5-0.1-37.1C26.2,52,41.6,47.4,57.3,43.7
		c3.7-0.9,5-2.2,4.9-6c-0.3-8-0.1-16-0.1-24c0-5.4,0.8-5.8,5.5-3.4c1.1,0.6,2.5,0.6,3.8,0.6c7.6,0.1,15.1,0,23.9,0
		c-1.7,1.3-2.4,2.1-3.3,2.6c-6.6,4.1-13,8.3-19.8,12c-3.7,2-5.4,4.5-4.8,8.7c0.3,2.1,0,4.3,0,6.2c22-2.4,43.5-4.8,65.5-7.2
		c0-1.9,0-4.2,0-6.8c-1.9-0.2-3.6-0.3-5.7-0.5c0-8.6,0-17.1,0-25.9c15.4,0,30.9,0,46.7,0c0,8.6,0,17.1,0,25.8
		c-1.9,0.2-3.6,0.4-5.7,0.6c0,2.3,0,4.7,0,7.2c17.2,1.6,34.4,3.3,52.2,5c0-4.8,0-9.5,0-14.3c0-4.2-0.1-8.5,0.1-12.7
		c0.1-3.2,1.9-3.9,4.6-2.3c1.4,0.8,3.1,1.4,4.7,1.4c7.5,0.1,15,0.1,22.5,0.1c0.1,0.4,0.2,0.7,0.3,1.1c-3.7,2.3-7.5,4.7-11.2,7
		c-4.5,2.7-9,5.4-13.5,8.2c-4.6,2.9-1.7,7.5-2,11.2c-0.1,0.8,2.8,2.3,4.5,2.6c15.2,3.2,30.3,6.7,44.2,13.7c6.4,3.2,12.8,7.2,18.1,12
		c8.5,7.6,8.3,17,0.6,25.4c-2,2.1-4.1,4.4-6.6,5.6c-5.9,2.8-6.1,7.3-4.9,13.2c5.5,0,11.1,0,18.1,0c-2,4.1-3,7.5-5.1,10
		c-2.9,3.4-6.4,6.5-10.1,8.9c-3.4,2.2-3.9,4.6-2.9,8.4c5.6,0,11.1,0,18.2,0c-2.3,4.3-3.6,8-5.9,10.8c-2.4,3-5.6,5.7-8.9,7.6
		c-3.9,2.3-4.7,5.1-3.3,9.5c5.4,0,10.8,0,17.6,0c-1.5,3.5-1.9,6.8-3.8,8.7c-4.6,4.6-9.4,9.3-14.9,12.5c-14.5,8.6-30.6,13.1-47,16
		c-16.5,2.9-33.2,4.7-49.9,6.9c-2,0.3-4,0-6.4,0c0-5,0-9.8,0-14.9c8.2-0.7,16.3-1.5,24.4-2.2c5.9-0.5,5.9-0.6,5.9-6.5c0-2,0-4,0-6.5
		c-10.3,0.9-20.1,1.8-30.5,2.7c0-5.4,0-10.3,0-15.5c7-0.6,14.4-1.2,21.8-2c11.2-1.2,8.4,0.1,8.7-9.8c0-0.7-0.2-1.4-0.4-2.5
		c-8.9,0.7-17.5,1.4-26.2,2.2c-6,0.6-11.2,0.6-16.8-3.4c-9-6.5-24-4.9-33,1.8c-1.7,1.2-4.2,2.1-6.3,2c-9-0.5-18-1.4-27.1-2.1
		c-2-0.2-4-0.3-6.5-0.5c0,3.8,0,7.4,0,11.6c10,0.9,20.1,1.9,30.3,2.8c0,4.9,0,9.8,0,15.4c-10.3-0.9-20.1-1.8-30.6-2.7
		c0,3.6-0.4,6.9,0.2,10.1c0.2,1.1,2.5,2.5,4,2.7c7.4,0.9,14.8,1.6,22.2,2c3.2,0.2,4.4,1.2,4.2,4.4c-0.3,3.6-0.1,7.2-0.1,11.6
		c-8.1-0.7-15.6-1.2-23.1-2c-25.2-2.9-50.1-7-73.3-17.7c-7.2-3.3-13.7-8.3-19.9-13.2c-4.3-3.4-5.1-6.9-4.9-11.5c5.5,0,10.9,0,16.5,0
		c1.2-4.3,0.6-6.8-3.1-9.5c-4.7-3.5-8.5-8.2-12.4-12.6c-1.1-1.2-1.1-3.5-1.7-5.8c6.1,0,11.6,0,17.1,0c1.4-4,0.3-6.1-2.8-8.7
		c-4.7-3.7-8.7-8.4-12.7-12.9C0.6,115.6,0.6,113.5,0,111.2z M69.4,50.3c-14.9,3.2-29.2,6.5-41.9,14.4c-1.8,1.2-3.6,2.6-5,4.2
		c-4.8,5.1-5,10.7,0.1,15.4c3.8,3.4,8.3,6.7,13.1,8.5c9.9,3.7,20.1,7.2,30.4,9.1c16,3,32.2,5.2,48.4,6.6c14.6,1.3,29.4,1.5,44.1,1.2
		c16.1-0.4,32.3-1.3,48.3-3.2c13.1-1.5,26.1-4.4,38.9-7.4c10.4-2.4,20.5-5.9,28.9-12.9c7.4-6.2,7.5-13.1-0.2-19
		c-12.7-9.9-28-13-43.7-16.5c-1.8,6.7-3.5,13-5.2,19.5c12.9,3.9,25.6,7.3,36.3,15.4c-5.5,4.9-8.3,5.1-13.5,1.4
		c-7.3-5.1-15.6-7.6-24.7-9.8c-1.6,6-3.1,11.6-4.7,17.4c4.1,0.8,7.5,1.5,10.9,2.2c-53,11.3-106,11.3-159,1.3c0-0.4,0-0.8-0.1-1.2
		c3.3-0.7,6.6-1.4,10.3-2.2c-1.6-6-3.2-11.7-4.8-17.9c-10.2,2.7-19.9,5.1-27.9,11.8c-0.9,0.8-2.4,1.7-3.2,1.5
		c-2.8-0.9-5.5-2.3-8.9-3.9c11.8-9,25-12.4,38.2-16.3C72.8,63.1,71.2,56.9,69.4,50.3z M91.5,137.2c39,4.6,77.4,4.7,116,0
		c0-5.3,0-10.1,0-15.1c-38.9,4.5-77.3,4.6-116-0.1C91.5,127.2,91.5,132,91.5,137.2z M154.3,61.2c0.4,0.3,0.5,0.4,0.7,0.5
		c20.3,2.1,40.5,4.2,60.8,6.2c0.8,0.1,2.2-0.5,2.4-1c1.7-5.8,3.2-11.6,4.9-17.8c-23.2-3.9-45.8-5.6-68.7-5.7
		C154.3,49.6,154.3,55.3,154.3,61.2z M145.9,43.2c-23,0.2-45.5,1.7-68.6,5.6c1.6,6.1,3.1,11.9,4.9,17.5c0.2,0.7,2.4,1.2,3.6,1.1
		c19-1.8,38-3.7,56.9-5.5c1.1-0.1,2.2-0.3,3.2-0.5C145.9,55.3,145.9,49.5,145.9,43.2z M145.9,69.5c-20.7,0.4-40.9,1.5-61.5,5.6
		c1.5,5.8,2.8,11.3,4.5,16.7c0.2,0.7,2.3,1.4,3.4,1.3c10.6-0.8,21.2-1.8,31.8-2.6c7.2-0.5,14.5-0.8,21.8-1.3
		C145.9,82.6,145.9,76.2,145.9,69.5z M154.2,89.8c5.2,0,10-0.3,14.8,0.1c12.8,0.9,25.5,2,38.3,2.9c1.4,0.1,3.9-0.6,4.2-1.5
		c1.7-5.2,3-10.5,4.5-16.1c-20.8-4.1-41.1-5.4-61.7-5.7C154.2,76.4,154.2,82.6,154.2,89.8z M70.1,119.1c-12.1-3.2-23.6-6.3-35.6-9.5
		c0,4-0.1,7.8,0.1,11.5c0.1,1,1,2.5,2,2.9c10.6,4.7,21.8,7.6,33.6,9.7C70.1,128.5,70.1,123.7,70.1,119.1z M228.9,134.8
		c11.8-3.8,22.8-7.2,33.8-10.9c0.8-0.3,1.7-1.7,1.7-2.6c0.2-3.9,0.1-7.8,0.1-11.7c-11.5,3-22.6,5.8-33.6,8.8
		c-0.8,0.2-1.9,1.5-1.9,2.4C228.8,125,228.9,129.1,228.9,134.8z M70.3,189.2c0-4.1,0.1-7.4-0.1-10.7c-0.1-0.8-1.1-2.1-2-2.3
		c-11.1-2.9-22.2-5.6-33.8-8.5c0,1.9,0.2,3.9,0,5.9c-0.5,3.8,1.1,5.9,4.7,6.9c5.7,1.6,11.3,3.8,17,5.4
		C60.6,187.2,65.2,188,70.3,189.2z M264.5,167.7c-11.6,2.9-22.7,5.6-33.8,8.6c-0.8,0.2-1.9,1.5-1.9,2.3c-0.2,3.3-0.1,6.6-0.1,10.5
		c12.2-2.4,23.5-5.3,34.3-10.1c0.7-0.3,1.4-1.6,1.4-2.4C264.7,173.6,264.5,170.6,264.5,167.7z M34.5,140.5c0,2.3-0.2,4.8,0.1,7.2
		c0.1,1.2,0.8,3,1.8,3.5c10.7,4.8,21.9,7.7,34,9.9c0-3.5,0.1-6.5-0.1-9.5c-0.1-0.9-1-2.2-1.8-2.4C57.3,146.1,46.2,143.4,34.5,140.5z
		 M264.6,140.5c-11.6,2.9-22.7,5.6-33.8,8.5c-0.8,0.2-1.8,1.2-1.9,1.9c-0.2,3.2-0.1,6.5-0.1,11.1c11.7-3.7,22.4-7,33-10.5
		c1.2-0.4,2.4-2.3,2.7-3.7C264.9,145.3,264.6,142.8,264.6,140.5z M163.1,33.7c0.8-7.4,0.8-7.4-6.1-7.4c-4.5,0-9,0-13.5,0
		c-6.7,0-7.1,0.5-5.3,7.4C146.3,33.7,154.6,33.7,163.1,33.7z M161.1,16.3c2.4-1.3,6-2.4,6-3.3c-0.2-3.7-3.6-2.4-5.8-2.3
		c-2.3,0.1-5.8-1.6-6.2,2.3C155.1,13.9,158.7,15.1,161.1,16.3z M137.3,16.5c2.4-1.4,5.9-2.6,5.9-3.6c-0.2-3.7-3.7-2.3-5.8-2.2
		c-2.1,0.1-4.2,1.3-6.3,2C132.9,13.9,134.9,15,137.3,16.5z"/>
</g>
</svg>
