
<svg version="1.1" id="Layer_1" xmlns="http://www.w3.org/2000/svg" xmlns:xlink="http://www.w3.org/1999/xlink" x="0px" y="0px"
	 viewBox="0 0 300 300" style="enable-background:new 0 0 300 300;" xml:space="preserve">
<g>
	<g fill="#fff">
		<path d="M222.5,232.5l1.1-2c4.5-8.1,12.7-22.9,19.6-43.2c-22-7.9-36.8-1.6-37-1.4c-3.4,1.4-79.4,33.2-98.9,38.1
			c-23.8,8.5-63.5,10.4-79.4,10.9c23.3,33.7,60,57.3,102.3,63.1h0.1C136.8,297.4,186.8,290.5,222.5,232.5z M203.3,179.2
			c0.7-0.2,17.3-7.6,42.1,1.3c3.3-11,6-23.3,7.5-36.9c-22.3-7-56.3-15.4-67.9-17.6c-14.6-5.7-81-11-105.3-11.7
			c-30.6-0.6-46.7,3.9-52,5.4c-9.7,1.9-21.7,12.9-25.1,16.2c-0.5,4.9-0.8,9.8-0.8,14.7c0,28.3,7.9,54.7,21.6,77.1
			c10.4-0.1,56.4-1.5,82-10.6C124.4,212.2,202.5,179.5,203.3,179.2z M177.8,58.9c13,10.5,42.1,33.9,74.2,33.5
			c-3.9-22.9-15.2-58.5-47.8-80.7c-16.7-6.5-34.8-10.1-53.8-10.1c-19,0-37.1,3.6-53.9,10.2c15.7,3.7,44.4,14.3,77.5,44.2
			C175,56.7,176.3,57.7,177.8,58.9z M79.8,106.9c21.4,0.7,91.5,5.8,107.2,12.2c10.7,2,43.7,9.9,66.6,17.1c0.6-7,0.8-14.2,0.6-21.7
			c0-1.9-0.1-7.1-1-14.5c-0.6,0.1-1.2,0.1-1.8,0.1c-34.2,0-64.5-24.3-78.2-35.4c-1.4-1.1-2.8-2.1-3.8-3.1
			c-43.1-39.1-78.7-43.9-84.8-44.4C42.9,37.8,12.3,77.4,4,124.7c5.9-4.9,14.3-10.7,21.9-12.2C31.3,111,48.1,106.4,79.8,106.9z
			 M249.5,191.3c-6.9,20.1-15,34.7-19.5,42.8l-1.2,2.1c-23.8,38.5-53,55.6-73.5,63.1c46.7-1.4,88.1-24.6,114.4-59.7
			C268.1,211.1,257.2,198.2,249.5,191.3z M283.4,83.7C271,59.2,252.2,38.6,229,24.1c19.4,22.3,27.2,49.2,30.3,67.8
			C267.3,91.1,275.3,88.4,283.4,83.7z M260,146c-1.7,14-4.6,26.8-8.1,38c7.5,6.1,20.5,18.5,24.2,46.4c11.7-18.5,19.5-39.7,22.1-62.5
			c-6.9-6.8-14.6-11.7-27.7-17.5C268.2,149,264.5,147.6,260,146z M286.5,90.4c-8.8,5.1-17.5,7.8-26,9c0.9,7.7,1,13.1,1,14.9
			c0.2,8.4,0,16.6-0.7,24.3c5.5,1.9,10.2,3.7,13.1,5.3c9.5,4.2,17.8,8.6,25.2,14.9c0.2-2.7,0.3-5.4,0.3-8.1
			C299.3,129.1,294.8,108.7,286.5,90.4z"/>
	</g>
</g>
</svg>
