<?xml version="1.0" encoding="utf-8"?>
<!-- Generator: Adobe Illustrator 19.2.1, SVG Export Plug-In . SVG Version: 6.00 Build 0)  -->
<svg version="1.1" id="Layer_1" xmlns="http://www.w3.org/2000/svg" xmlns:xlink="http://www.w3.org/1999/xlink" x="0px" y="0px"
	 viewBox="0 0 295.3 300" style="enable-background:new 0 0 295.3 300;" xml:space="preserve">
<style type="text/css">
	.st0{fill:#333333;}
</style>
<path class="st0" d="M251.5,44.5c-58-58.9-151.5-59.4-208.8-1.1c-57.4,58.3-56.9,153.2,1.1,212.1c58,58.9,151.5,59.4,208.8,1.1
	C310,198.3,309.5,103.4,251.5,44.5z M221,224.5c-3.1,3.2-8.3,3.2-11.4-0.1l-61.9-62.9l-61.4,62.4c-3.1,3.2-8.2,3.2-11.4-0.1
	c-3.2-3.2-3.2-8.4-0.1-11.6l61.4-62.4L74.3,87c-3.2-3.2-3.2-8.4-0.1-11.6c3.1-3.2,8.3-3.2,11.4,0.1l61.9,62.9L209,76
	c3.1-3.2,8.3-3.2,11.4,0.1s3.2,8.4,0.1,11.6L159,150l61.9,62.9C224.1,216.1,224.2,221.3,221,224.5z"/>
</svg>
