<svg version="1.1" id="Layer_1" xmlns="http://www.w3.org/2000/svg" xmlns:xlink="http://www.w3.org/1999/xlink" x="0px" y="0px"
	 viewBox="0 0 239.1 300" style="enable-background:new 0 0 239.1 300;" xml:space="preserve">

<g fill="#fff">
	<path class="st0" d="M138.6,43.2v93.5L123,155.3l-12.6-14.4V43.2H138.6z M125.5,217.5c1.3,0,2.1,0,3,0
		c-4.6,12.3-11.4,21.1-20.2,27.1c-6.3,4.2-13.5,6.8-21.9,8C88.5,232.7,105.3,217.5,125.5,217.5L125.5,217.5z M134,218.3
		c17.7,3.8,31.2,19,31.2,37.6c-8.9,0.8-17.3,3.4-24,8c-10.5,6.3-18.5,16.5-23.6,30.5c-17.3-3.8-30.3-18.2-31.2-35.9
		c9.7-1.3,18.1-4.2,25.3-9.3C121.8,242.4,129.3,232.3,134,218.3L134,218.3z M164.8,261.5c-2.5,19-19,33.8-39.2,33.8
		c-0.8,0-1.7,0-2.5,0c5.1-12.3,11.8-21.1,21.1-26.6C150,264.8,157.1,262.3,164.8,261.5L164.8,261.5z M35.3,264.8l48-57.1l14.8,16.1
		c-8.4,7.2-13.9,16.9-15.2,28.3l-0.4,3.4l0,0l0,0v1.3v-0.4l0.4,2.1c0.4,8.4,3.4,16.5,8.4,23.3l-13.5,15.7c-2.5,3-7.6,3.8-11.4,1.3
		l-30.3-23.3c-1.7-1.3-2.5-2.9-2.9-5.1C33.2,268.2,33.7,266.1,35.3,264.8L35.3,264.8z M171.1,295.3l-11.4-12.7
		c4.6-5.9,7.6-13.1,8.9-20.7l0.4-4.2l0,0l-0.4-2.1c0-19.5-13.9-36.4-33.7-40.6l-1.7-0.4l0,0l-4.6-0.4c-0.8,0-1.7,0-3,0
		c-8,0-15.2,2.1-21.9,5.9l-59.9-67.2c-2.5-3-2.9-6.8-1.3-9.7c3.4-3,6.3-5.9,9.3-8.9l-50.6-55c-0.8-0.8-0.8-2.1,0-3l5.9-5.9
		c0.8-0.8,4.6-3.4,5.5-2.5l51,55c1.7-1.3,0.8-0.4,2.5-2.1l5.9-5.5c2.9-3,8-2.6,11,0.8l127.3,142.5c3,3,2.5,8-0.4,11L182,295.7
		c-1.7,1.3-3.8,2.1-5.5,2.1C174.4,297.8,172.3,296.6,171.1,295.3L171.1,295.3z M127.6,155.7l31.2-36.8c2.1-2.5,5.9-3.4,9.3-2.5
		c3.4,2.5,6.7,5.5,10.5,8l47.2-57.9c0.9-1.3,2.1-1.3,3-0.4l6.7,4.7c0.8,0.8,4.2,3.8,3.4,5.1l-47.2,57.9c1.7,1.3,0.8,0.8,2.5,2.5
		l6.3,4.6c3.4,2.5,3.8,7.2,0.8,10.6l-37.5,44.4L127.6,155.7z M172.7,18.7h3c6.3,0,11.4,5.1,11.4,11.4v6.8h-28.2v-4.2
		C158.8,25.1,165.2,18.7,172.7,18.7L172.7,18.7z M184.1,3.5l-8.8,0.4c-2.9-3.8-6.3-4.2-10.1-0.8c-3.4-3.4-6.7-4.2-10.1-0.4
		c-1.7-3-6.7-4.2-9.7,0.4c0-2.5-8-3.8-10.1,0l-8.4,0.4v8c3.4,0,6.3,0.4,9.3,0.4c3.4,4.2,6.7,3.4,10.5,0.4c1.3,3.4,6.8,3.8,8.9,0.4
		c3.4,3,6.3,3.8,10.1-0.8c3.4,4.2,7.1,4.6,10.9,0.4h7.6V3.5z M65.3,4.4h8.9c2.9-3.4,6.3-4.2,10.1-0.9c3.4-3,6.7-4.2,10.1-0.4
		c1.7-3,6.8-3.8,9.7,0.8c0.4-3,8-4.2,10.1,0h8.4v8c-3,0.4-6.3,0.4-9.3,0.4c-3.4,4.6-6.7,3.8-10.5,0.8c-1.3,3-6.7,3.8-8.9,0
		c-2.9,3-6.3,3.8-10.1-0.4c-3.4,3.8-7.2,4.2-11,0h-7.6V4.4z M187.1,43.2V108l-9.3,11.4c-2.5-2.1-5.1-3.8-7.6-5.5l-0.4-0.4l-0.4-0.4
		c-3.8-1.3-7.6-0.8-10.5,1.3v-71H187.1z M187.1,173.9v53.3l-23.2-25.8L187.1,173.9z M75.4,18.3h3.4c6.3,0,11.4,5.1,11.4,11.4v7.2
		H61.5v-5.1C61.5,24.2,67.8,18.3,75.4,18.3L75.4,18.3z M90.1,43.2v75.3l-4.6-5.1c-4.2-4.6-11.4-5.1-16-0.8l-5.9,5.5l0,0l-2.1-2.5
		V43.2H90.1z M61.5,227.6v-49.5l21.9,24.1L61.5,227.6z M124.3,17.4h3c6.3,0,11.4,5.1,11.4,11.4v8h-28.2V31
		C110.4,23.8,116.3,17.4,124.3,17.4L124.3,17.4z"/>
</g>
</svg>
