<?xml version="1.0" encoding="utf-8"?>
<!-- Generator: Adobe Illustrator 19.2.1, SVG Export Plug-In . SVG Version: 6.00 Build 0)  -->
<svg version="1.1" id="Layer_1" xmlns="http://www.w3.org/2000/svg" xmlns:xlink="http://www.w3.org/1999/xlink" x="0px" y="0px"
	 viewBox="0 0 300 287" style="enable-background:new 0 0 300 287;" xml:space="preserve">
<style type="text/css">
	.st0{fill:#fff;}
</style>
<g>
	<path class="st0" d="M258.4,175.5v70.3H42.1v-70.3H0.6v90.9c0,11.4,9.3,20.6,20.8,20.6h257.7c11.5,0,20.8-9.2,20.8-20.6v-90.9
		H258.4z"/>
	<path class="st0" d="M146.5,168.5L87,97.1c0,0-9.1-8.5,0.8-8.5c9.8,0,33.5,0,33.5,0s0-5.7,0-14.5c0-25.1,0-50.3,0-69
		c0,0-1.3-5.1,6.4-5.1c7.7,0,41.6,0,47.2,0c5.5,0,5.4,4.3,5.4,4.3c0,18.1,0,44.9,0,69.2c0,7.9,0,13,0,13s19,0,30.9,0
		c11.9,0,2.9,8.9,2.9,8.9s-50.6,66.8-57.7,73.8C151.3,174.2,146.5,168.5,146.5,168.5z"/>
</g>
</svg>
