
<svg version="1.1" id="Layer_1" xmlns="http://www.w3.org/2000/svg" xmlns:xlink="http://www.w3.org/1999/xlink" x="0px" y="0px"
	 viewBox="0 0 300 300" style="enable-background:new 0 0 300 300;" xml:space="preserve">
<style type="text/css">
	.st0{fill:#fff;}
</style>
<g>
	<path class="st0" d="M69.2,38.1C42.6,54,28.9,81.4,24.2,92.4c1.6-3.8,4.7-10.4,9.4-18c7.3-11.8,18.9-25.9,34.5-35l0.9-0.3v0.6
		c0,0-0.4,0.8-0.3,2.1c0,1.3-0.1,3.1,0,5.2c0.2,4.2,0.6,9.3,1.5,13.2l0,0.2L70,60.5c0,0-0.4,0.4-1.1,1.2c-0.7,0.8-1.7,1.8-3,3.2
		c-2.5,2.7-6,6.5-9.7,10.6c-7.4,8.4-15.8,18.5-19.9,25.3l-0.1,0.2l-0.2,0c0,0-5.9-0.9-12.9-4.8l-0.2-0.1c-0.1,0.3-0.2,0.5-0.2,0.6
		c0,0.1,0,0.1-0.1,0.2c6.6,3.6,12.3,4.8,13.6,5c0,0,0,0,0.1,0c4.6-7.7,13.3-18.1,20.9-26.6c7-7.9,13.1-14.1,14.1-15.1
		C69.4,52.6,69.2,40.9,69.2,38.1z"/>
	<path class="st0" d="M36.8,105.3c5.5-9.2,15-20.4,23.1-29.3c7.5-8.2,13.9-14.5,14.9-15.5c-2.1-9.3-2.3-23.7-2.4-26.7
		C34.2,56.4,21.7,94.3,20.3,98.9c0,0.1,0,0.1-0.1,0.2c8,4.4,14.8,5.8,16.4,6.1C36.7,105.2,36.7,105.2,36.8,105.3z M20.8,98.5
		l-0.2-0.1l0.1-0.3c0,0,12.1-40.8,50.1-63l0.3-0.3v0.6c0,0,0.2,0.2,0.2,0.7c0,0.4,0.1,1.1,0.1,1.9c0,1.6,0.2,3.9,0.3,6.4
		c0.3,5.1,0.9,11.4,1.9,16.1l0.1,0.2l-0.1,0.1c0,0-0.4,0.4-1.2,1.2c-0.7,0.8-1.8,1.9-3.2,3.2c-2.7,2.8-6.3,6.6-10.3,11
		c-7.9,8.7-17.1,19.6-22.1,28l-0.1,0.2l-0.2,0C36.6,104.3,29.3,103.2,20.8,98.5z"/>
	<path class="st0" d="M202.7,128.8c0.8,0.1,1.3,0.2,1.6,0.2c13.2-15.3,18.2-36.9,18.7-39.5c0,0,0-0.1,0-0.1
		c-4.3-5.6-12-12.5-19.3-18.5c-7.4-6-14.4-11.1-17.2-13.1c-0.5-0.4-0.9-0.6-1.1-0.8c-16.7,4.9-36.3,15.5-40.9,18.1
		c-0.4,0.2-0.6,0.4-0.8,0.5l11,46.6C163.5,123.8,194.9,127.8,202.7,128.8z M145,76.2c0,0,21.8-12.5,40.1-17.8l0.2,0l0.1,0.1
		c0,0,6.7,4.7,14.5,10.8c7.8,6.2,16.8,13.9,21.5,20.1l0.1,0.1l0,0.2c0,0-4.4,22.5-18.1,38.1l-0.1,0.1l-0.2,0c0,0-38.2-4.8-47.5-6.5
		l-0.2,0l-10.6-45.1L145,76.2z"/>
	<path class="st0" d="M54.3,74.7C60.8,67.2,66.6,61,67.6,60C66.2,54,66,44.9,66,42.5c-12.6,7.5-22.4,19.4-29.3,30
		c-7,10.7-11,20-11.9,22.1c0,0,0,0.1-0.1,0.1c5.3,2.8,9.7,3.8,10.8,4h0C39.2,92.4,47.2,82.8,54.3,74.7z"/>
	<path class="st0" d="M201.6,127.1c0.7,0.1,1.2,0.2,1.5,0.2c12.5-14.5,17.2-35,17.7-37.4c0,0,0-0.1,0-0.1
		c-4-5.3-11.4-11.9-18.3-17.5c-7-5.7-13.7-10.5-16.3-12.4c-0.5-0.4-0.8-0.6-1-0.7c-15.8,4.6-34.4,14.7-38.8,17.2
		c-0.3,0.2-0.6,0.3-0.7,0.4l10.4,44.2C164.4,122.3,194.2,126.1,201.6,127.1z M147,77.2c0,0,20.6-11.9,37.9-16.8l0.2,0l0.1,0.1
		c0,0,6.3,4.4,13.7,10.3c7.4,5.9,15.9,13.2,20.4,19l0.1,0.1l0,0.2c0,0-4.2,21.3-17.1,36.1l-0.1,0.1l-0.2,0c0,0-36.1-4.6-44.9-6.1
		l-0.2,0l-10-42.7L147,77.2z"/>
	<path class="st0" d="M44,211.4c18,25.8,40.2,38.5,42.8,40c0.1,0,0.4,0.1,0.4,0.1c6.5-1.1,14.3-4.9,20.9-8.8
		c6.6-4,12.2-8.1,14.4-9.7c0.3-0.2,0.6-0.4,0.7-0.6c-4.6-9.1-9.3-22.1-12.8-32.9c-3.3-9.9-5.6-17.9-6-19.3L57,171.6
		c-11.4,20.6-12.5,36.6-12.5,39.5C44.5,211.2,44,211.3,44,211.4C44,211.4,44,211.4,44,211.4z M57.6,172.8l0.1-0.2L104,181l0.1,0.2
		c0,0,0.1,0.5,0.4,1.5c0.3,0.9,0.7,2.3,1.2,4c1,3.4,2.5,8.1,4.2,13.3c3.5,10.5,8,23.1,12.4,31.7l0.1,0.2l-0.2,0.2c0,0-5,4-11.9,8.4
		c-6.8,4.3-15.5,9-22.8,10.1l-0.1,0l-0.1-0.1c0,0-23.1-12.4-41.3-38.9l-0.1-0.1l0-0.1c0,0,0-0.2,0-0.5
		C46,208.2,46.5,192.7,57.6,172.8z"/>
	<path class="st0" d="M72.9,60.4c-1.9-8.5-2.1-21.5-2.2-24.4c-35,20.8-47.9,57.4-49.4,61.9c0,0.1,0,0.1-0.1,0.2
		c7.3,4,13.6,5.3,15,5.6c0,0,0.1,0,0.1,0c5.1-8.5,14.2-19.3,22-27.9C65.8,67.6,72,61.4,72.9,60.4z M36.6,102.5l-0.1,0.2l-0.2,0
		c0,0-6.6-1-14.4-5.3l-0.2-0.1l0.1-0.3c0,0,13.2-39.5,47.7-59.7l0.6-0.3v0.6c0,0-0.1,0.9,0,2.3s0.1,3.5,0.2,5.8
		c0.2,4.6,0.7,10.3,1.7,14.6l0,0.2l-0.1,0.1c0,0-0.4,0.4-1.1,1.2c-0.7,0.8-1.8,1.9-3.1,3.2c-2.6,2.7-6.1,6.5-10,10.8
		C49.9,84.4,41.1,94.8,36.6,102.5z"/>
	<path class="st0" d="M23.6,95.8c5.9,3.2,11,4.3,12.2,4.5c0,0,0,0,0,0c4.2-7,12.5-16.9,19.9-25.2c6.8-7.7,12.7-13.9,13.7-14.9
		c-1.5-6.9-1.7-17.3-1.8-19.9c-22,13.1-35.3,36.4-40.9,48.3c1.8-3.7,4.5-8.8,8-14.4C41.8,62.9,52,49.7,65.8,41.6l0.2-0.3v0.6
		c0,0,0.3,0.7,0.4,1.9c0,1.2,0.2,2.8,0.3,4.6c0.2,3.7,0.7,8.2,1.5,11.7l0.1,0.2l-0.1,0.1c0,0-0.4,0.4-1.1,1.2
		c-0.7,0.7-1.7,1.8-2.9,3.2c-2.5,2.7-5.8,6.4-9.4,10.5c-7.1,8.2-15.2,17.9-18.8,24l-0.1,0.2l-0.2,0c0,0-5.3-0.8-11.5-4.3L23.9,95
		c-0.1,0.3-0.2,0.5-0.2,0.6C23.6,95.7,23.6,95.7,23.6,95.8z"/>
	<path class="st0" d="M87.5,245.4c0.1,0,0.1,0.1,0.1,0.1c5.3-0.9,11.5-3.9,16.7-7.2c5.3-3.2,9.7-6.6,11.3-7.9
		c0.2-0.2,0.4-0.3,0.5-0.4c-3.8-7.5-7.7-18.5-10.8-27.6c-2.8-8.4-4.8-15.2-5.1-16.5l-38.9-7.1c-9.4,16.8-9.8,30-9.8,32.3
		c0,0.1,0,0.2,0,0.3C66.2,232.5,85.2,244,87.5,245.4z M62.1,180l0.1-0.2l37.7,6.9l0.1,0.2c0,0,0.1,0.4,0.4,1.2c0.2,0.8,0.6,2,1,3.4
		c0.9,2.9,2.1,6.9,3.6,11.3c2.9,8.9,6.8,19.5,10.3,26.5l0.1,0.2l-0.2,0.2c0,0-3.9,3.3-9.3,6.7c-5.4,3.5-12.2,7.2-18.1,8.2l-0.1,0
		l-0.1-0.1c0,0-20-11.4-34.8-32.9l-0.1-0.1l0-0.1c0,0,0-0.1,0-0.4C52.6,208.8,53,196.2,62.1,180z"/>
	<path class="st0" d="M204.9,132.3c0.9,0.1,1.5,0.2,1.7,0.2c14.6-16.9,20.1-40.7,20.7-43.6c0-0.1,0-0.1,0-0.1
		c-4.7-6.2-13.2-13.8-21.4-20.4c-8.2-6.6-15.9-12.2-19-14.4c-0.6-0.4-1-0.7-1.2-0.9c-18.4,5.4-40.1,17.1-45.2,20
		c-0.4,0.2-0.7,0.4-0.9,0.5l12.1,51.5C161.6,126.8,196.3,131.2,204.9,132.3z M141.1,74.2c0,0,24.2-13.9,44.4-19.8l0.2,0l0.1,0.1
		c0,0,7.4,5.2,16.1,12c8.7,6.9,18.7,15.4,23.9,22.3l0.1,0.1l0,0.2c0,0-4.9,24.9-20,42.3l-0.1,0.1l-0.2,0c0,0-42.3-5.4-52.7-7.2
		l-0.2,0l-11.8-50L141.1,74.2z"/>
	<path class="st0" d="M87.6,243.9c0,0,0.1,0.1,0.1,0.1c5-0.8,10.8-3.7,15.7-6.7c4.9-3,9-6.2,10.6-7.4c0.2-0.2,0.4-0.3,0.5-0.4
		c-3.6-7.1-7.3-17.6-10.2-26.3c-2.6-8-4.6-14.6-4.9-15.8l-36.8-6.7c-8.9,15.9-9.3,28.3-9.3,30.5c0,0.1,0,0.2,0,0.3
		C67,231.4,85.4,242.6,87.6,243.9z M63.2,181.8l0.1-0.2l35.5,6.5l0.1,0.2c0,0,0.1,0.4,0.3,1.2c0.2,0.8,0.6,1.9,1,3.3
		c0.8,2.8,2,6.6,3.4,10.8c2.8,8.5,6.4,18.6,9.8,25.2l0.1,0.2l-0.2,0.2c0,0-3.6,3.1-8.6,6.3c-5,3.3-11.4,6.8-17,7.7l-0.1,0l-0.1-0.1
		c0,0-19.3-11.1-33.2-31.4l-0.1-0.1l0-0.1c0,0,0-0.1,0-0.4C54.2,209,54.6,197.1,63.2,181.8z"/>
	<path class="st0" d="M47,211.4c17,24.6,38,37,40.6,38.5c0.1,0,0,0.1,0.1,0.1c6.2-1,13.5-4.6,19.7-8.4c6.3-3.8,11.5-7.7,13.5-9.3
		c0.3-0.2,0.5-0.4,0.7-0.5c-4.4-8.7-8.9-21.2-12.3-31.6c-3.1-9.5-5.4-17.2-5.8-18.6l-45.3-8.3C47.2,193,46.8,208.3,46.8,211
		C46.8,211.2,47,211.3,47,211.4C47,211.4,47,211.4,47,211.4z M58.7,174.6l0.1-0.2l44.1,8l0.1,0.2c0,0,0.1,0.5,0.4,1.4
		c0.3,0.9,0.7,2.2,1.1,3.8c1,3.3,2.4,7.8,4,12.8c3.3,10.1,7.7,22.2,11.9,30.4l0.1,0.2l-0.2,0.2c0,0-4.8,3.9-11.2,8
		c-6.5,4.1-14.7,8.5-21.6,9.6l-0.1,0l-0.1-0.1c0,0-22.3-12.2-39.7-37.4l-0.1-0.1l0-0.1c0,0,0-0.2,0-0.4
		C47.6,208.3,48.1,193.6,58.7,174.6z"/>
	<path class="st0" d="M203.8,130.6c0.8,0.1,1.4,0.2,1.7,0.2c13.9-16.1,19.1-38.8,19.7-41.6c0-0.1,0-0.1,0-0.1
		c-4.5-5.9-12.6-13.2-20.4-19.4c-7.8-6.3-15.2-11.7-18.1-13.7c-0.6-0.4-1-0.7-1.2-0.8c-17.6,5.1-38.2,16.3-43.1,19
		c-0.4,0.2-0.7,0.4-0.9,0.5l11.5,49.1C162.5,125.3,195.6,129.5,203.8,130.6z M143.1,75.2c0,0,23-13.2,42.3-18.8l0.2,0l0.1,0.1
		c0,0,7,4.9,15.3,11.4c8.3,6.5,17.8,14.7,22.7,21.2l0.1,0.1l0,0.2c0,0-4.7,23.7-19,40.2l-0.1,0.1l-0.2,0c0,0-40.3-5.1-50.1-6.8
		l-0.2,0l-11.2-47.6L143.1,75.2z"/>
	<path class="st0" d="M48,211.4c16,23.5,36.8,35.6,39.3,37c0.1,0,0.2,0.1,0.2,0.1c5.9-1,12.9-4.4,18.8-8c6-3.6,10.9-7.3,12.8-8.8
		c0.3-0.2,0.5-0.4,0.6-0.5c-4.2-8.3-8.5-20.3-11.8-30.3c-3-9.1-5.2-16.6-5.6-17.9l-43.2-7.9c-10.4,18.7-11.1,33.3-11.1,35.9
		C48.1,211.2,48,211.3,48,211.4C48,211.4,48,211.4,48,211.4z M59.8,176.4l0.1-0.2l41.9,7.6l0.1,0.2c0,0,0.1,0.5,0.4,1.4
		c0.3,0.9,0.6,2.1,1.1,3.7c0.9,3.1,2.3,7.5,3.9,12.3c3.2,9.7,7.4,21.3,11.4,29.1l0.1,0.2l-0.2,0.2c0,0-4.5,3.7-10.6,7.6
		c-6.1,3.9-13.8,8.1-20.5,9.1l-0.1,0l-0.1-0.1c0,0-21.6-11.9-38.1-35.9l-0.1-0.1l0-0.1c0,0,0-0.1,0-0.4
		C49.3,208.5,49.8,194.4,59.8,176.4z"/>
	<path class="st0" d="M87.5,246.9c0.1,0,0.1,0.1,0.1,0.1c5.6-0.9,12.1-4.2,17.7-7.6c5.6-3.4,10.3-7,12.1-8.4
		c0.2-0.2,0.4-0.3,0.6-0.5c-4-7.9-8.1-19.4-11.3-29c-2.9-8.8-5-15.9-5.3-17.2l-41-7.5C50.4,194.7,50,208.6,50,211.1
		c0,0.1,0,0.2,0,0.3C65.3,233.7,85.1,245.5,87.5,246.9z M60.9,178.2l0.1-0.2l39.8,7.2l0.1,0.2c0,0,0.1,0.5,0.4,1.3
		c0.2,0.8,0.6,2.1,1.1,3.6c0.9,3,2.2,7.2,3.7,11.8c3.1,9.3,7.1,20.4,10.9,27.8l0.1,0.2l-0.2,0.2c0,0-4.2,3.5-9.9,7.2
		c-5.7,3.7-13,7.7-19.3,8.7l-0.1,0l-0.1-0.1c0,0-20.8-11.7-36.4-34.4l-0.1-0.1l0-0.1c0,0,0-0.1,0-0.4
		C50.9,208.7,51.4,195.3,60.9,178.2z"/>
	<path class="st0" d="M204.5,246.9c0.3,1.1,0.7,2.7,1.4,4.4c1.4,3.4,3.8,7.5,7.9,10.2c0.1,0,0.2,0,0.3-0.1c0.3-0.1,0.8-0.2,1.3-0.4
		c1.2-0.4,2.8-0.9,4.8-1.7c4-1.6,9.4-4.2,14.9-8c10.9-7.6,22.1-20.2,23.8-40.2l-24.2-2.9c-0.8,1.1-5.2,7.3-10.9,14.6
		c-6.2,8-13.8,17.2-19.8,22.6c0,0.1,0,0.2,0.1,0.3C204.3,245.8,204.4,246.3,204.5,246.9z M205.6,245.1c4.8-4.2,11-11.6,16.5-18.6
		c5.5-7,10.3-13.6,12.1-16.1c0.5-0.7,0.8-1.1,0.8-1.1l0.1-0.2l23.2,2.8l0,0.3c-1.5,18.7-12.4,30.9-22.9,38.4
		c-10.5,7.5-20.7,10.2-20.7,10.2l-0.1,0l-0.1-0.1c-4-2.6-6.2-6.4-7.5-9.6c-1.3-3.2-1.5-5.7-1.5-5.7l0-0.2L205.6,245.1z"/>
	<path class="st0" d="M87.6,242.4c0,0,0.1,0,0.1,0.1c4.7-0.8,10.1-3.5,14.7-6.3c4.6-2.9,8.4-5.8,9.8-7c0.2-0.1,0.3-0.3,0.4-0.3
		c-3.4-6.7-7-16.7-9.7-25c-2.5-7.6-4.4-13.9-4.7-15.1l-34.6-6.3c-8.3,15-8.7,26.7-8.7,28.8c0,0.1,0,0.2,0,0.2
		C67.9,230.2,85.5,241.1,87.6,242.4z"/>
	<path class="st0" d="M202.6,246.8c0.3,1.2,0.9,3,1.7,4.9c1.6,3.8,4.3,8.2,8.7,11.1c0.1,0,0.2,0,0.3-0.1c0.3-0.1,0.8-0.2,1.4-0.4
		c1.2-0.4,2.9-0.9,5-1.7c4.2-1.6,9.8-4.2,15.6-8.2c11.4-7.9,23.2-21.2,25.1-42.8l-26.2-3.2c-0.8,1.1-5.3,7.4-11.2,15
		c-6.4,8.2-14.4,17.9-20.9,23.6c0,0.1,0,0.2,0.1,0.3C202.4,245.7,202.5,246.2,202.6,246.8z M203.6,244.8
		c5.2-4.6,11.8-12.3,17.5-19.6c5.7-7.2,10.6-14,12.5-16.6c0.5-0.8,0.8-1.2,0.8-1.2l0.1-0.2l25.2,3.1l0,0.3
		c-1.6,20.4-13.1,33.3-24.2,41c-11.1,7.7-21.7,10.4-21.7,10.4l-0.1,0l-0.1-0.1c-4.3-2.8-6.8-7-8.3-10.6c-1.5-3.5-1.8-6.4-1.8-6.4
		l0-0.2L203.6,244.8z"/>
	<path class="st0" d="M200.5,125.3c0.7,0.1,1.1,0.1,1.4,0.2c11.8-13.7,16.3-33,16.8-35.4c0,0,0-0.1,0-0.1
		c-3.8-5-10.7-11.2-17.3-16.5c-6.6-5.4-12.9-10-15.4-11.7c-0.5-0.3-0.8-0.6-1-0.7c-15,4.3-32.5,13.9-36.7,16.2
		c-0.3,0.2-0.5,0.3-0.7,0.4l9.8,41.8C165.3,120.8,193.5,124.4,200.5,125.3z M148.9,78.3c0,0,19.5-11.2,35.7-15.9l0.2,0l0.1,0.1
		c0,0,5.9,4.1,12.9,9.7c7,5.5,15,12.4,19.2,18l0.1,0.1l0,0.2c0,0-4,20-16.1,34l-0.1,0.1l-0.2,0c0,0-34-4.3-42.3-5.8l-0.2,0
		l-9.5-40.3L148.9,78.3z"/>
	<path class="st0" d="M198.2,121.8c0.6,0.1,1,0.1,1.2,0.2c10.5-12.1,14.4-29.2,14.8-31.3c0,0,0,0,0-0.1c-3.4-4.4-9.5-9.9-15.3-14.6
		c-5.9-4.8-11.4-8.8-13.6-10.4c-0.4-0.3-0.7-0.5-0.8-0.6c-13.2,3.8-28.7,12.3-32.4,14.3c-0.3,0.1-0.5,0.3-0.6,0.3l8.7,36.9
		C167.2,117.8,192.1,121,198.2,121.8z"/>
	<path class="st0" d="M206.4,246.9c0.2,1,0.6,2.4,1.2,4c1.2,3.1,3.3,6.7,7.1,9.2c0.1,0,0.2-0.1,0.3-0.1c0.3-0.1,0.7-0.2,1.3-0.4
		c1.1-0.4,2.7-0.9,4.6-1.8c3.8-1.6,8.9-4.1,14.1-7.8c10.4-7.3,21.1-19.2,22.6-37.5l-22.2-2.7c-0.8,1.1-5.1,7.1-10.5,14.2
		c-6,7.7-13.3,16.6-18.8,21.6c0,0.1,0,0.2,0,0.3C206.2,246,206.3,246.4,206.4,246.9z"/>
	<path class="st0" d="M200.7,246.8c0.4,1.4,1,3.2,1.9,5.3c1.8,4.1,4.8,9,9.6,12.1c0.1,0,0.2,0,0.4-0.1c0.3-0.1,0.8-0.2,1.5-0.4
		c1.3-0.4,3.1-0.9,5.3-1.7c4.4-1.6,10.3-4.3,16.3-8.4c11.9-8.2,24.3-22.2,26.3-45.4l-28.2-3.4c-0.8,1.1-5.4,7.6-11.5,15.4
		c-6.6,8.5-15,18.5-21.9,24.7c0,0.1,0,0.2,0.1,0.4C200.4,245.5,200.5,246.1,200.7,246.8z M201.6,244.6c5.6-5,12.5-13,18.5-20.5
		c6-7.5,11-14.4,12.9-17.1c0.6-0.8,0.9-1.2,0.9-1.2l0.1-0.2l27.2,3.3l0,0.3c-1.7,22-13.8,35.6-25.4,43.6
		c-11.6,8-22.7,10.5-22.7,10.6l-0.1,0l-0.1-0.1c-4.6-3-7.5-7.6-9.1-11.5c-1.7-3.9-2.2-7-2.2-7l0-0.2L201.6,244.6z"/>
	<path class="st0" d="M199.3,123.6c0.6,0.1,1.1,0.1,1.3,0.2c11.1-12.9,15.3-31.1,15.8-33.3c0,0,0-0.1,0-0.1
		c-3.6-4.7-10.1-10.5-16.3-15.6c-6.3-5.1-12.2-9.4-14.5-11c-0.4-0.3-0.7-0.5-0.9-0.6c-14.1,4.1-30.6,13.1-34.5,15.3
		c-0.3,0.2-0.5,0.3-0.6,0.4l9.3,39.3C166.3,119.3,192.8,122.7,199.3,123.6z M150.9,79.3c0,0,18.3-10.5,33.5-14.9l0.2,0l0.1,0.1
		c0,0,5.6,3.9,12.1,9.1c6.6,5.2,14.1,11.7,18,16.9l0.1,0.1l0,0.2c0,0-3.7,18.8-15.1,31.9l-0.1,0.1l-0.2,0c0,0-31.9-4.1-39.7-5.4
		l-0.2,0l-8.9-37.8L150.9,79.3z"/>
	<path class="st0" d="M198.4,245c0.1,0.4,0.3,1,0.5,1.7c0.4,1.5,1.1,3.5,2.1,5.7c2,4.5,5.3,9.7,10.4,13.1c0.1,0,0.2,0,0.4-0.1
		c0.4-0.1,0.9-0.2,1.5-0.4c1.3-0.3,3.2-0.9,5.5-1.7c4.6-1.6,10.7-4.3,17-8.6c12.5-8.5,25.4-23.1,27.5-48l-30.2-3.7
		c-0.8,1.1-5.5,7.8-11.8,15.8c-6.9,8.7-15.6,19.1-23,25.7C198.3,244.6,198.3,244.8,198.4,245z M199.6,244.4
		c6.1-5.4,13.3-13.7,19.4-21.5c6.2-7.7,11.3-14.8,13.3-17.5c0.6-0.8,0.9-1.2,0.9-1.2l0.1-0.2l29.2,3.6l0,0.3
		c-1.9,23.7-14.5,37.9-26.6,46.2c-12.1,8.3-23.7,10.7-23.8,10.7l-0.1,0l-0.1-0.1c-5-3.2-8.1-8.3-9.9-12.5c-1.9-4.2-2.5-7.6-2.5-7.6
		l0-0.2L199.6,244.4z"/>
	<path class="st0" d="M194.3,244.1c0,0.1,0.1,0.3,0.1,0.5c0.1,0.5,0.3,1.2,0.6,2c0.5,1.7,1.4,4.1,2.6,6.6c2.4,5.1,6.3,11.2,12.1,15
		c0,0,0,0,0,0c0.1,0,0.2,0,0.4-0.1c0.4-0.1,0.9-0.2,1.7-0.3c1.4-0.3,3.5-0.9,6-1.7c5-1.6,11.6-4.4,18.4-9
		c13.5-9.1,27.6-25.1,29.9-53.3l-34.2-4.2C230.2,202.2,210.4,229.7,194.3,244.1z M232.2,200.7l33.2,4.1l0,0.3
		c-2.1,27-15.9,42.6-29,51.5c-13.2,8.9-25.8,11-25.8,11l-0.1,0l-0.1-0.1c-5.7-3.7-9.3-9.5-11.6-14.4c-2.3-4.9-3.1-8.9-3.1-8.9l0-0.2
		l0.1-0.1c13.8-12.2,31.3-36,35.5-41.8c0.6-0.8,0.9-1.3,0.9-1.3L232.2,200.7z"/>
	<path class="st0" d="M196.3,244.3c0,0.1,0.1,0.3,0.1,0.5c0.1,0.4,0.3,1.1,0.5,1.9c0.5,1.6,1.3,3.8,2.4,6.2
		c2.2,4.8,5.8,10.5,11.2,14c0,0,0,0,0,0c0.1,0,0.2,0,0.4-0.1c0.4-0.1,0.9-0.2,1.6-0.4c1.4-0.3,3.3-0.9,5.7-1.7
		c4.8-1.6,11.2-4.4,17.7-8.8c13-8.8,26.5-24.1,28.7-50.7l-32.2-3.9c-0.8,1.1-5.7,7.9-12.2,16.1C213.3,226.6,204.2,237.3,196.3,244.3
		z M232.7,202.5l0.1-0.2l31.2,3.8l0,0.3c-2,25.3-15.2,40.3-27.8,48.9c-12.6,8.6-24.8,10.9-24.8,10.9l-0.1,0l-0.1-0.1
		c-5.3-3.5-8.7-8.9-10.8-13.4c-2.1-4.6-2.8-8.2-2.8-8.3l0-0.2l0.1-0.1c13-11.5,30.1-34.8,34.1-40.4
		C232.3,203,232.7,202.5,232.7,202.5z"/>
	<path class="st0" d="M176.5,2C94.9-12.7,16.9,41.7,2.2,123.3C-12.4,205,42,283,123.6,297.6c81.6,14.6,159.7-39.7,174.3-121.4
		C312.5,94.6,258.2,16.6,176.5,2z M277.5,84.7l0.5,1c11.4,23.3,14.3,50.3,14.3,50.3l-0.7,0.1c-0.9-6.2-4.1-14.7-7.3-22.4
		c-3.3-7.6-6.6-14.4-8-17c-0.4-0.7-0.6-1.2-0.6-1.2l-0.1-0.1L277.5,84.7z M102.4,63.1c11.4,2.1,22.9,5.8,30.9,10.1
		c1,4.3,2,8.6,2.9,12.8c3.2,13.9,6.4,28.2,10.5,41.8c-8.3,6.8-31.7,27.1-41.2,48.2c-7.6-1.4-15.7-2.8-23.6-4.2
		c-5.1-0.9-10.1-1.8-14.9-2.6c-3.8-0.7-7-1.3-9.8-1.8c-7.2-11-11.6-25.9-14.1-36.7c-1.6-6.8-2.6-12.8-3.1-16.7
		c-0.4-2.3-0.6-4.2-0.7-5.3c12.2-18.1,26.1-33,39.3-46.5C84.1,61.1,92.6,61.4,102.4,63.1l0.1-0.8l0,0L102.4,63.1L102.4,63.1z
		 M138.9,73.3l0.2-0.1c0,0,25.4-14.6,46.6-20.7l0.2,0l0.1,0.1c0,0,7.8,5.4,16.9,12.6c9.1,7.2,19.6,16.2,25,23.4l0.1,0.1l0,0.2
		c0,0-5.2,26.2-21,44.4l-0.1,0.1l-0.2,0c0,0-44.4-5.6-55.3-7.5l-0.2,0L138.9,73.3z M56.6,170.8l48.4,8.8l0.1,0.2
		c0,0,0.2,0.5,0.4,1.5c0.3,1,0.7,2.4,1.2,4.1c1.1,3.5,2.6,8.4,4.4,13.8c3.6,10.9,8.3,24,12.9,33l0.1,0.2l-0.2,0.2
		c0,0-5.3,4.2-12.5,8.8c-7.2,4.5-16.3,9.4-23.9,10.6l-0.1,0l-0.1-0.1c0,0-23.9-12.7-42.9-40.4l-0.1-0.1l0-0.1c0,0,0-0.2,0-0.5
		c0-3,0.6-19.2,12.2-40L56.6,170.8z M108.7,178.3c5.3-12.4,16.3-24.8,24.5-33.1c3.9-3.9,8.1-7.8,12.5-11.6c1.8-1.6,3.2-2.7,4-3.4
		c5.8,0.9,11.6,1.6,17.6,2.4c9.9,1.3,20.2,2.6,31.7,4.7c2.5,0.5,5.1,0.9,7.6,1.4c0.5,0.8,1,1.7,1.6,2.7c6,9.9,19.9,35,20.7,55.3
		c-14.3,19.7-26.9,34.4-38.4,45c-9.5,1.2-20.1,0.8-31.5-1.3c-9.7-1.7-18.1-4.3-23.5-6.2c-3.1-1.1-5.5-2-6.9-2.6
		c-0.2-0.1-0.4-0.1-0.5-0.2C119.4,214.2,113.5,195.1,108.7,178.3z M210.2,137.2c10.8-13.4,18.8-30.3,22.5-47.9
		c7.3,0,14.1,0.6,20.3,1.7c7.6,1.4,14.3,3.6,19.9,6.5c7.3,12.3,15.8,34,17.6,50.6c-0.1,0.5-0.2,1-0.3,1.8
		c-1.3,7.4-6.9,32.7-22.9,49.5c-6.6-0.2-22.2-1.4-31.2-3c-1.3-0.2-2.4-0.4-3.3-0.7C231.4,173.2,215.9,146.3,210.2,137.2z
		 M191.7,13.4C227.1,24.1,257,48,273,78.5v0c0,0.3,0.7,0.5,0.9,0.7c-0.1-0.2-0.1-0.5-0.2-0.7c-0.2,1.8-0.2,4-0.5,6.5
		c-0.2,2.5-0.4,5.2-0.7,7.9c-10.7-5-24.6-7.6-40.7-7.5c-6.9-9.2-34-33-44.7-37.3c-0.6-11.3-3.5-24.7-5.5-32.1
		C185,15.6,188.3,14.5,191.7,13.4z M78.2,27c25.2-14.9,55-22.2,85.9-19.2l0.1,0c4.7,2.7,9.1,5.3,13.5,7.4c2.1,6.9,5.1,21.3,5.7,32.8
		c-13.6,2.5-40.9,16.7-48.5,21.7c-8.2-4.4-20-8.3-31.8-10.4c-9.7-1.7-18.2-2.1-24-1C77.6,50.5,76.9,37.7,78.2,27z M19.5,99.2
		c0,0,11.1-42.1,52.5-66.3l0-0.3v0.6c0,0,0.5,0.3,0.5,0.7c0,0.5,0.3,1.2,0.3,2.1c0,1.8,0.2,4.2,0.4,7c0.3,5.5,1,12.4,2.2,17.6
		l0.1,0.2l-0.1,0.1c0,0-0.4,0.4-1.2,1.2c-0.8,0.8-1.9,1.9-3.2,3.3c-2.7,2.8-6.5,6.7-10.5,11.1c-8.2,8.9-17.7,20.2-23.1,29.4
		l-0.1,0.2l-0.2,0c0,0-7.9-1.2-17.2-6.4l-0.2-0.1L19.5,99.2z M28.1,221.6L28.1,221.6c-16.7-28.3-23.7-62.4-17.5-97.2
		c1.3-7.2,3.1-14.1,5.4-20.8c6.4,3,15,5.3,19.6,6.3c1,8.4,5.3,39.1,17.8,58.8c-6,9.5-15.1,27-13.7,43.2
		C35.7,215,31.8,218.3,28.1,221.6L28.1,221.6L28.1,221.6z M108.8,285.3L108.8,285.3c-33.5-10.3-61-32.2-78.6-60.4
		c3.5-3.2,7.3-6.3,11.2-9.4c7.1,11.2,30.9,36.1,43.2,40.5C90.8,268.7,100.7,278.7,108.8,285.3c0.2,0,0.4,0.1,0.6,0.2
		C109.2,285.4,109,285.3,108.8,285.3z M180.2,288.5c-17.5,3.7-35.9,4.2-54.6,0.9c-2.4-0.4-4.7-0.9-7-1.5
		c-8.3-5.7-21.5-16.5-29.6-31.7c8.8-1.9,28.4-11.6,38.3-21c5.2,2.1,16.9,6.4,31.1,8.9c11.3,2,21.9,2.5,31.4,1.4
		c4.7,13.1,10,21.4,16.2,25.4c-6.2,5.4-13.4,10.5-21.5,15.2C183.1,286.9,181.7,287.7,180.2,288.5z M193.8,284.9
		c6.1-4,11.6-8.2,16.5-12.7c7-1.4,15.7-3.7,25.6-9C223.2,272.7,208.9,280.1,193.8,284.9z M236.5,257.8
		c-13.7,9.2-26.8,11.2-26.9,11.2l-0.1,0l-0.1-0.1c-6-3.9-10-10.1-12.4-15.4c-2.5-5.2-3.4-9.5-3.4-9.5l0-0.2l0.2-0.1
		c14.7-13,32.6-37.3,36.8-43.2c0.6-0.8,0.9-1.3,0.9-1.3l0.1-0.2l35.2,4.3l0,0.3C264.5,232.3,250.2,248.6,236.5,257.8z M290.6,174.4
		c-4.5,25.2-15.4,47.6-30.7,66c6.8-13.2,10.3-26.2,10.5-38.9c13.3-14.1,19.6-33.2,22.3-44.9C292.4,162.5,291.7,168.5,290.6,174.4z"
		/>
	<path class="st0" d="M278,95.2c1.4,2.5,3.8,8.1,5.9,13c0.6,1.5,1.3,3,1.8,4.3c-2.7-9.2-6-17.5-7.1-20.4L278,95.2z"/>
	<path class="st0" d="M290.4,128.1c-0.4-2.4-1-5.2-1.7-8.4c-2.1-9.4-5.5-21.5-10.9-32.8l-1.4,8.4c0.5,0.9,3.7,7.1,7.1,14.9
		C286,115.8,288.6,122.3,290.4,128.1z M277.4,95.4l-0.1-0.1l0.9-4.4l0.2-1.1l0.4,1c0,0,5.6,13.3,9,26.9l-0.6,0.2
		c0,0-0.1-0.3-0.3-0.8c-0.2-0.5-0.5-1.2-0.8-2.1c-0.7-1.7-1.7-4.1-2.7-6.6C281.2,103.4,278.7,97.8,277.4,95.4z"/>
</g>
</svg>
