<?xml version="1.0" encoding="utf-8"?>
<!-- Generator: Adobe Illustrator 19.2.1, SVG Export Plug-In . SVG Version: 6.00 Build 0)  -->
<svg version="1.1" id="Layer_1" xmlns="http://www.w3.org/2000/svg" xmlns:xlink="http://www.w3.org/1999/xlink" x="0px" y="0px"
	 viewBox="0 0 300 300" style="enable-background:new 0 0 300 300;" xml:space="preserve">
<g fill="#fff">
	<path d="M183.2,274.1c0.4,0,0.8,0.1,1.2,0.1h91.3c10.7,0,19.4-8.6,19.4-19.3V44.3c0-10.6-8.7-19.3-19.4-19.3h-91.3
		c-0.4,0-0.8,0-1.2,0.1V0L5,23.7v252.1L183.2,300V274.1z M184.5,36.1h91.2c4.6,0,8.3,3.7,8.3,8.3v210.5c0,4.6-3.7,8.3-8.3,8.3h-91.3
		c-0.4,0-0.8-0.1-1.2-0.1 M78.2,174.6c-3.9,1.3-11.3,3-18.6,2.8c-9.9-0.3-17-3.1-21.8-8.2c-4.8-4.9-7.5-12.3-7.4-20.6
		c0.1-18.7,12.8-29.6,30.5-30.1c7.1-0.2,12.7,1.2,15.4,2.5l-2.7,10.6c-3.1-1.3-6.9-2.4-12.9-2.3c-10.3,0.2-17.9,6.3-17.9,18.6
		c0,11.7,6.9,18.8,17,18.9c2.9,0.1,5.1-0.2,6.1-0.7V154l-8.5-0.1v-10.2l20.7,0L78.2,174.6L78.2,174.6z M101.5,178l-13.2-0.4v-59.1
		l13.2-0.3V178z M151.1,128.6l-24.1,0.3v14l22.5-0.1v11.5l-22.5-0.2v24.6l-13.8-0.4v-60.4l37.9-0.9V128.6z"/>
</g>
</svg>
