
<svg version="1.1" id="Layer_1" xmlns="http://www.w3.org/2000/svg" xmlns:xlink="http://www.w3.org/1999/xlink" x="0px" y="0px"
	 viewBox="0 0 300 300" style="enable-background:new 0 0 300 300;" xml:space="preserve">
<g fill="#fff">
	<path d="M96.3,132.3H38.5C17.8,132.3,1,115.7,1,95.2V38.2C1,17.7,17.8,1.1,38.5,1.1h57.8c20.7,0,37.5,16.6,37.5,37.1v57.1
		C133.8,115.7,117,132.3,96.3,132.3z M38.5,24.1c-7.8,0-14.2,6.3-14.2,14v57.1c0,7.7,6.4,14,14.2,14h57.8c7.8,0,14.2-6.3,14.2-14
		V38.2c0-7.7-6.4-14-14.2-14H38.5z"/>
	<path d="M262.5,132.3h-57.7c-20.7,0-37.5-16.6-37.5-37.1V38.2c0-20.4,16.8-37.1,37.5-37.1h57.7c20.7,0,37.5,16.6,37.5,37.1v57.1
		C300,115.7,283.2,132.3,262.5,132.3z M204.7,24.1c-7.8,0-14.2,6.3-14.2,14v57.1c0,7.7,6.4,14,14.2,14h57.7c7.8,0,14.2-6.3,14.2-14
		V38.2c0-7.7-6.4-14-14.2-14H204.7z"/>
	<path d="M96.3,299.9H38.5C17.8,299.9,1,283.3,1,262.8v-57.1c0-20.4,16.8-37.1,37.5-37.1h57.8c20.7,0,37.5,16.6,37.5,37.1v57.1
		C133.8,283.3,117,299.9,96.3,299.9z M38.5,191.8c-7.8,0-14.2,6.3-14.2,14v57.1c0,7.7,6.4,14,14.2,14h57.8c7.8,0,14.2-6.3,14.2-14
		v-57.1c0-7.7-6.4-14-14.2-14H38.5z"/>
	<path d="M262.5,299.9h-57.7c-20.7,0-37.5-16.6-37.5-37.1v-57.1c0-20.4,16.8-37.1,37.5-37.1h57.7c20.7,0,37.5,16.6,37.5,37.1v57.1
		C300,283.3,283.2,299.9,262.5,299.9z M204.7,191.8c-7.8,0-14.2,6.3-14.2,14v57.1c0,7.7,6.4,14,14.2,14h57.7c7.8,0,14.2-6.3,14.2-14
		v-57.1c0-7.7-6.4-14-14.2-14H204.7z"/>
</g>
</svg>
