<?xml version="1.0" encoding="utf-8"?>
<!-- Generator: Adobe Illustrator 19.2.1, SVG Export Plug-In . SVG Version: 6.00 Build 0)  -->
<svg version="1.1" id="Layer_1" xmlns="http://www.w3.org/2000/svg" xmlns:xlink="http://www.w3.org/1999/xlink" x="0px" y="0px"
	 viewBox="0 0 300 300" style="enable-background:new 0 0 300 300;" xml:space="preserve">
<style type="text/css">
	.st0{fill:rgba(255,255,255,1);}
</style>
<g>
	<path class="st0" d="M298.5,146.6c-0.5-1.2-1.2-2.2-2-3.1l-32-32c-3.7-3.7-9.6-3.7-13.3,0c-3.7,3.7-3.7,9.6,0,13.3l16,16l-108.3,0
		l0-108.4l16.7,16.7c1.8,1.8,4.2,2.8,6.6,2.8c2.4,0,4.8-0.9,6.6-2.8c3.7-3.7,3.7-9.6,0-13.3L156.3,3.2c-0.9-0.9-1.9-1.6-3-2
		c-2.3-1-4.9-1-7.2,0c-1.1,0.5-2.2,1.2-3,2c0,0,0,0,0,0l-32,32c-3.7,3.7-3.7,9.6,0,13.3c1.8,1.8,4.2,2.7,6.6,2.7
		c2.4,0,4.8-0.9,6.6-2.7l16-16l0,108.4l-108.2,0l16-16c3.7-3.7,3.7-9.6,0-13.3c-3.7-3.7-9.6-3.7-13.3,0l-32,32
		c-1.8,1.8-2.7,4.2-2.7,6.6c0,2.4,0.9,4.8,2.7,6.6l32.7,32.7c1.8,1.8,4.2,2.8,6.6,2.8c2.4,0,4.8-0.9,6.6-2.8c3.7-3.7,3.7-9.6,0-13.3
		L32,159.6l108.3,0l0,108.4l-16-16c-3.7-3.7-9.6-3.7-13.3,0c-3.7,3.7-3.7,9.6,0,13.3l32,32c1.8,1.8,4.2,2.7,6.6,2.7
		c2.4,0,4.8-0.9,6.6-2.7l32.7-32.7c3.7-3.7,3.7-9.6,0-13.3c-3.7-3.7-9.6-3.7-13.3,0L159,268l0-108.4l108.3,0l-16.7,16.7
		c-3.7,3.7-3.7,9.6,0,13.3c1.8,1.8,4.2,2.8,6.6,2.8c2.4,0,4.8-0.9,6.6-2.8l32.7-32.7c0,0,0-0.1,0.1-0.1c0.8-0.9,1.5-1.9,2-3
		c0.5-1.2,0.7-2.4,0.7-3.6C299.3,149,299,147.8,298.5,146.6z"/>
</g>
</svg>
