<?xml version="1.0" encoding="utf-8"?>
<!-- Generator: Adobe Illustrator 19.2.1, SVG Export Plug-In . SVG Version: 6.00 Build 0)  -->
<svg version="1.1" id="Layer_1" xmlns="http://www.w3.org/2000/svg" xmlns:xlink="http://www.w3.org/1999/xlink" x="0px" y="0px"
	 viewBox="0 0 203.7 300" style="enable-background:new 0 0 203.7 300;" xml:space="preserve">
<g>
	<g fill="#fff">
		<path d="M102.3,174.2c-5.1,0-9.2,4-9.2,8.9c0,3.3,1.9,6.4,5,7.9c1.9,0.9,3.3,2.4,4.2,4.2c0.9-1.7,2.3-3.2,4.2-4.2
			c3.1-1.5,5-4.6,5-7.9C111.5,178.2,107.4,174.2,102.3,174.2z M171.7,124.7V60.4c0-33.3-26.1-60.4-58.2-60.4H91.2
			C59.1,0,32.9,27.1,32.9,60.4v64.2C13.3,143.1,1,169.4,1,198.4c0,55.8,45.5,101.3,101.3,101.3c55.9,0,101.3-45.4,101.3-101.3
			C203.7,169.4,191.4,143.1,171.7,124.7z M128.7,233c0.2,0.7,0.2,1.4,0.2,2c0,8.1-8.2,14.2-19.1,14.2h-15
			c-10.9,0-19.1-6.1-19.1-14.2c0-0.7,0.1-1.4,0.2-2l6.8-29.7c-5.7-5.1-9-12.4-9-20.2c0-15.2,12.8-27.6,28.5-27.6
			c15.7,0,28.5,12.4,28.5,27.6c0,7.8-3.3,15-9,20.2L128.7,233z M152.4,110.3c-2.6-1.5-5.3-2.9-8.1-4.1c-0.1,0-0.2-0.1-0.3-0.1
			c-0.4-0.2-0.8-0.3-1.2-0.5c-0.6-0.3-1.2-0.5-1.7-0.7c-0.3-0.1-0.5-0.2-0.8-0.3c-0.9-0.3-1.7-0.7-2.6-1c0,0,0,0-0.1,0
			c-8.9-3.3-18.5-5.4-28.4-6.1c-0.2,0-0.5,0-0.7,0c-0.8,0-1.6-0.1-2.4-0.1c-0.3,0-0.5,0-0.8,0c-1,0-2,0-3,0c-1,0-2,0-3,0
			c-0.3,0-0.5,0-0.8,0c-0.8,0-1.6,0.1-2.4,0.1c-0.2,0-0.5,0-0.7,0c-9.9,0.7-19.4,2.8-28.4,6.1c0,0,0,0-0.1,0c-0.9,0.3-1.7,0.7-2.6,1
			c-0.3,0.1-0.5,0.2-0.8,0.3c-0.6,0.2-1.2,0.5-1.7,0.7c-0.4,0.2-0.8,0.3-1.2,0.5c-0.1,0-0.2,0.1-0.3,0.1c-2.8,1.3-5.5,2.6-8.1,4.1
			V60.4c0-23,17.4-41.7,38.9-41.7h22.3c21.4,0,38.9,18.7,38.9,41.7V110.3z M96.4,230.6h11.9l-6-25.9L96.4,230.6z"/>
	</g>
</g>
</svg>
