<?xml version="1.0" encoding="utf-8"?>
<!-- Generator: Adobe Illustrator 19.2.1, SVG Export Plug-In . SVG Version: 6.00 Build 0)  -->
<svg version="1.1" id="Layer_1" xmlns="http://www.w3.org/2000/svg" xmlns:xlink="http://www.w3.org/1999/xlink" x="0px" y="0px"
	 viewBox="0 0 300 224" style="enable-background:new 0 0 300 224;" xml:space="preserve">
<style type="text/css">
	.st0{fill:#333333;}
</style>
<g>
	<path class="st0" d="M260.1,125.4c-28.2,28.2-56.4,56.4-85.4,85.3c5.8,5.2,10.6,9.5,14.8,13.3c36.7-37.3,73.8-75,110.5-112.2
		C264,75.5,226.9,37.9,189.4,0c-4.2,4.1-8.7,8.6-14.1,14c28.7,28.7,57.1,57,85.5,85.3c-0.4,0.7-0.7,1.4-1.1,2.1c-3,0-5.9,0-8.9,0
		c-79.8,0-159.5,0.2-239.3-0.2c-9,0-10.7,2.8-10.6,11c0.1,7.8,1,11.5,10.4,11.5c79.8-0.4,159.5-0.2,239.3-0.2c2.8,0,5.6,0,8.3,0
		C259.4,124.1,259.7,124.8,260.1,125.4z"/>
</g>
</svg>
