<?xml version="1.0" encoding="utf-8"?>
<!-- Generator: Adobe Illustrator 19.2.1, SVG Export Plug-In . SVG Version: 6.00 Build 0)  -->
<svg version="1.1" id="Layer_1" xmlns="http://www.w3.org/2000/svg" xmlns:xlink="http://www.w3.org/1999/xlink" x="0px" y="0px"
	 viewBox="0 0 300 300" style="enable-background:new 0 0 300 300;" xml:space="preserve">
<g fill="#ffff">
	<path d="M279.9,75C238.5,3.3,146.7-21.3,75,20.1C3.3,61.5-21.3,153.2,20.1,224.9c41.4,71.7,133.1,96.3,204.9,54.9
		C296.7,238.3,321.3,146.7,279.9,75z M218.4,268.3c-65.4,37.8-149.1,15.4-186.8-50c-37.8-65.4-15.4-149,50.1-186.7
		c65.4-37.8,149.1-15.4,186.8,50C306.2,147,283.8,230.6,218.4,268.3z M204,143.8l-78.5-45.8c-7.2-4.2-12.9-0.8-12.9,7.4l0.4,90.9
		c0,8.3,5.9,11.6,13.1,7.5l77.9-45C211.1,154.7,211.1,148,204,143.8z"/>
</g>
</svg>
