<?xml version="1.0" encoding="utf-8"?>
<!-- Generator: Adobe Illustrator 19.2.1, SVG Export Plug-In . SVG Version: 6.00 Build 0)  -->
<svg version="1.1" id="Layer_1" xmlns="http://www.w3.org/2000/svg" xmlns:xlink="http://www.w3.org/1999/xlink" x="0px" y="0px"
	 viewBox="0 0 300 199.6" style="enable-background:new 0 0 300 199.6;" xml:space="preserve">
<style type="text/css">
	.st0{fill:#fff;}
</style>
<g>
	<path class="st0" d="M150.5,0C84.5,0,27.7,39.7,1.6,97c-0.8,1.7-0.8,3.8,0,5.5c26.1,57.3,83,97,148.9,97s122.8-39.7,148.9-97
		c0.8-1.7,0.8-3.8,0-5.5C273.3,39.7,216.4,0,150.5,0z M150.5,168.7c-37.2,0-67.4-30.8-67.4-68.9c0-38.1,30.2-68.9,67.4-68.9
		c37.2,0,67.4,30.8,67.4,68.9S187.7,168.7,150.5,168.7z"/>
	<path class="st0" d="M150.5,55.7c23.8,0,43.2,19.7,43.2,44.1c0,24.3-19.3,44.1-43.2,44.1c-23.8,0-43.1-19.7-43.1-44.1
		C107.3,75.5,126.6,55.7,150.5,55.7z"/>
</g>
</svg>
