<?xml version="1.0" encoding="utf-8"?>
<!-- Generator: Adobe Illustrator 19.2.1, SVG Export Plug-In . SVG Version: 6.00 Build 0)  -->
<svg version="1.1" id="Layer_1" xmlns="http://www.w3.org/2000/svg" xmlns:xlink="http://www.w3.org/1999/xlink" x="0px" y="0px"
	 viewBox="0 0 300 213" style="enable-background:new 0 0 300 213;" xml:space="preserve">
<style type="text/css">
	.st0{fill:#fff;}
</style>
<path class="st0" d="M286.9,118.8c-8.7-10.5-19.8-17.4-33.4-20.5c4.3-6.3,6.4-13.2,6.4-20.9c0-10.7-3.9-19.8-11.7-27.4
	c-7.8-7.6-17.2-11.3-28.3-11.3c-9.9,0-18.5,3.1-25.9,9.4c-6.1-14.5-16-26.2-29.5-34.9C151.1,4.4,136.2,0,120,0
	C97.9,0,79.1,7.6,63.4,22.7C47.8,37.8,40,56.1,40,77.5c0,1.3,0.1,3.5,0.3,6.5c-12.3,5.5-22.1,13.9-29.4,25C3.6,120,0,132.1,0,145.2
	c0,18.7,6.8,34.6,20.5,47.9C34.2,206.4,50.7,213,70,213h170c16.6,0,30.7-5.7,42.4-17c11.7-11.3,17.6-25,17.6-41.1
	C300,141.4,295.6,129.4,286.9,118.8z M198.6,142.7c-0.9,0.9-2.1,1.3-3.6,1.3h-35v52.8c0,1.3-0.5,2.6-1.5,3.6c-1,0.9-2.2,1.6-3.5,1.6
	h-30c-1.4,0-2.5-0.7-3.5-1.6c-1-0.9-1.5-2.3-1.5-3.6V144H85c-1.4,0-2.5-0.4-3.5-1.4c-1-0.9-1.5-2-1.5-3.3c0-1.4,0.5-2.5,1.4-3.4
	l55-52.7c0.9-0.9,2.1-1.3,3.6-1.3c1.5,0,2.7,0.5,3.6,1.3l54.8,52.6c1,1.2,1.6,2.4,1.6,3.6C200,140.7,199.5,141.8,198.6,142.7z"/>
</svg>
