<svg version="1.1" id="Layer_1" xmlns="http://www.w3.org/2000/svg" xmlns:xlink="http://www.w3.org/1999/xlink" x="0px" y="0px"
	 viewBox="0 0 300 300" style="enable-background:new 0 0 300 300;" xml:space="preserve">
	<g fill="#fff">
		<path d="M88.1,85.7H232l-36.6,36.7c-5,5.1-5,13.2,0,18.3c2.5,2.5,5.8,3.8,9.1,3.8c3.3,0,6.6-1.3,9.1-3.8l58.6-58.8
			c0.6-0.6,1.1-1.3,1.6-2c0.1-0.2,0.2-0.4,0.3-0.6c0.3-0.5,0.6-1.1,0.9-1.6c0.1-0.3,0.2-0.6,0.3-0.8c0.2-0.5,0.4-1,0.5-1.6
			c0.2-0.8,0.3-1.7,0.3-2.6c0-0.9-0.1-1.7-0.3-2.6c-0.1-0.5-0.3-1.1-0.5-1.6c-0.1-0.3-0.1-0.6-0.3-0.8c-0.2-0.6-0.6-1.1-0.9-1.6
			c-0.1-0.2-0.2-0.4-0.3-0.6c-0.5-0.7-1-1.4-1.6-2L213.6,4.8c-5-5.1-13.2-5.1-18.2,0c-5,5.1-5,13.2,0,18.3L232,59.8H88.1
			c-47.4,0-86,38.7-86,86.3c0,7.2,5.8,12.9,12.9,12.9s12.9-5.8,12.9-12.9C27.9,112.8,54.9,85.7,88.1,85.7z M286.5,139.9
			c-7.1,0-12.9,5.8-12.9,12.9c0,33.3-27,60.4-60.2,60.4H69.6l36.6-36.7c5-5.1,5-13.2,0-18.3c-5-5.1-13.2-5.1-18.2,0l-58.6,58.8
			c-0.6,0.6-1.1,1.3-1.6,2c-0.1,0.2-0.2,0.4-0.3,0.6c-0.3,0.5-0.6,1.1-0.9,1.7c-0.1,0.3-0.2,0.6-0.3,0.8c-0.2,0.5-0.4,1-0.5,1.6
			c-0.2,0.8-0.3,1.7-0.3,2.6c0,0.9,0.1,1.7,0.3,2.6c0.1,0.6,0.3,1.1,0.5,1.6c0.1,0.3,0.1,0.6,0.3,0.8c0.2,0.6,0.6,1.1,0.9,1.7
			c0.1,0.2,0.2,0.4,0.3,0.6c0.5,0.7,1,1.4,1.6,2l58.6,58.8c2.5,2.5,5.8,3.8,9.1,3.8c3.3,0,6.6-1.3,9.1-3.8c5-5.1,5-13.2,0-18.3
			l-36.6-36.7h143.9c47.4,0,86-38.7,86-86.3C299.4,145.7,293.7,139.9,286.5,139.9z"/>
	</g>
</svg>
