<?xml version="1.0" encoding="utf-8"?>
<!-- Generator: Adobe Illustrator 19.2.1, SVG Export Plug-In . SVG Version: 6.00 Build 0)  -->
<svg version="1.1" id="Layer_1" xmlns="http://www.w3.org/2000/svg" xmlns:xlink="http://www.w3.org/1999/xlink" x="0px" y="0px"
	 viewBox="0 0 254.8 300" style="enable-background:new 0 0 254.8 300;" xml:space="preserve">
<style type="text/css">
	.st0{fill:#fff;}
</style>
<g>
	<path class="st0" d="M200.8,300H55v-12.4c6.4-2.3,12.9-4.3,19.5-6c6.6-1.7,13.6-3.1,21.2-4.3v-255H40.3L17.2,83.6H6.3
		c-0.9-5.7-1.6-12.2-2.2-19.5C3.5,56.8,3,49.4,2.5,41.8c-0.5-7.5-0.8-15-1.1-22.3C1.2,12.3,1,5.7,1,0h253.8c0,5.7-0.2,12.2-0.5,19.3
		c-0.3,7.1-0.7,14.5-1.1,22.1c-0.4,7.6-0.9,15-1.3,22.3c-0.4,7.3-1.1,14-2,19.9h-11.5l-23-61.3h-54.9v255c7.6,1.4,14.6,2.9,21.2,4.3
		c6.6,1.4,12.9,3.4,19,6V300z"/>
</g>
</svg>
