<?xml version="1.0" encoding="utf-8"?>
<!-- Generator: Adobe Illustrator 19.2.1, SVG Export Plug-In . SVG Version: 6.00 Build 0)  -->
<svg version="1.1" id="Layer_1" xmlns="http://www.w3.org/2000/svg" xmlns:xlink="http://www.w3.org/1999/xlink" x="0px" y="0px"
	 viewBox="0 0 300 289" style="enable-background:new 0 0 300 289;" xml:space="preserve">
<g fill="#fff">
	<path d="M149.5,162.2c44.3,0,80.3-36.4,80.3-81.2s-36-81-80.3-81c-44.3,0-80.3,36.4-80.3,81S105.1,162.2,149.5,162.2z M149.5,21.2
		c32.5,0,59.1,26.9,59.1,59.8s-26.6,59.8-59.1,59.8S90.4,113.8,90.4,81S117,21.2,149.5,21.2z"/>
	<path d="M10.6,289h278.8c5.9,0,10.6-4.7,10.6-10.7c0-56.1-45.1-101.9-100.7-101.9h-98.5C45.3,176.4,0,222,0,278.3
		C0,284.2,4.6,289,10.6,289z"/>
</g>
</svg>
